<svg width="81" height="19" viewBox="0 0 81 19" fill="none" xmlns="http://www.w3.org/2000/svg">
<g clip-path="url(#clip0_365_239)">
<path fill-rule="evenodd" clip-rule="evenodd" d="M9.92345 6.76368H4.9912C4.97218 6.7865 4.94937 6.80552 4.93035 6.82833C4.64894 7.10976 4.27627 7.30372 3.86176 7.35696V14.9023L4.92655 15.9671V7.73347H5.42472V16.4654L6.44768 17.4884V7.72967H6.94584V17.9866L7.45923 18.5L7.97261 17.9866V7.72967H8.47077V17.4884L9.49373 16.4654V7.73347H9.9919V15.9671L11.0567 14.9023V7.35696C10.6422 7.29992 10.2695 7.10976 9.9881 6.82833C9.96908 6.80932 9.94627 6.7865 9.92725 6.76368H9.92345ZM3.61077 3.64515H11.3039C11.5549 3.64515 11.7944 3.69459 12.015 3.78587C12.2432 3.88094 12.4485 4.01785 12.6196 4.18899C12.7908 4.36013 12.9277 4.5655 13.0227 4.79368C13.114 5.01426 13.1635 5.25386 13.1635 5.50486C13.1635 6.01828 12.9543 6.48606 12.6158 6.82453C12.3344 7.10596 11.9618 7.29992 11.5473 7.35316V14.4003L12.7261 13.2213C15.6391 10.3082 15.6391 5.58853 12.7261 2.67537C9.81697 -0.226388 5.09768 -0.226388 2.18472 2.68297C-0.728239 5.59614 -0.728239 10.3158 2.18472 13.2289L3.36359 14.4041V7.35696C2.94908 7.29992 2.57641 7.10976 2.295 6.82833C1.95655 6.48986 1.74739 6.02588 1.74739 5.50866C1.74739 5.25766 1.79683 5.01807 1.8881 4.79749C1.98317 4.5693 2.12007 4.36394 2.2912 4.1928C2.46232 4.02166 2.66768 3.88475 2.89584 3.78967C3.11641 3.6984 3.35599 3.64896 3.60697 3.64896L3.61077 3.64515ZM10.5547 5.11314H3.61077C3.5081 5.11314 3.41303 5.15117 3.33697 5.21963L3.32937 5.22724L3.32176 5.23484C3.25711 5.3033 3.21528 5.39457 3.21148 5.48965V5.50866C3.21148 5.50866 3.21148 5.53148 3.21148 5.54289C3.21908 5.61515 3.2419 5.6798 3.28373 5.74065C3.29514 5.75967 3.31035 5.77488 3.32556 5.79009C3.35218 5.81671 3.38261 5.83953 3.41683 5.85855C3.44345 5.87376 3.47387 5.88517 3.5043 5.89278C3.5157 5.89278 3.52711 5.90038 3.53852 5.90038C3.56134 5.90418 3.58415 5.90799 3.60697 5.90799C3.62979 5.90799 3.6488 5.90799 3.67162 5.90418C3.71725 5.89658 3.75908 5.88137 3.80092 5.85855C3.83514 5.83953 3.86176 5.81671 3.88838 5.79009C3.90739 5.77108 3.92261 5.75206 3.93782 5.72924L3.94542 5.71403C4.01007 5.60754 4.01768 5.48204 3.97965 5.37175H4.16979H10.7867H10.9274C10.8742 5.51247 10.9084 5.6798 11.0187 5.79009C11.1327 5.90418 11.3039 5.93841 11.4522 5.87756C11.6005 5.81671 11.6956 5.6722 11.6956 5.51247C11.6956 5.40598 11.6537 5.3071 11.5777 5.23104C11.5396 5.19301 11.4978 5.16258 11.4484 5.14357C11.3989 5.12455 11.3495 5.11314 11.2963 5.11314H10.5471H10.5547ZM3.61838 4.66058H11.3001C11.4104 4.66058 11.5206 4.67959 11.6233 4.72523C11.726 4.76706 11.8211 4.83172 11.8971 4.91158C12.0568 5.07131 12.1443 5.28428 12.1443 5.51247C12.1443 5.85474 11.9389 6.16279 11.6195 6.2959C11.3039 6.42521 10.9388 6.35295 10.6954 6.11335C10.6118 6.02969 10.5471 5.93081 10.5091 5.82812H4.40176C4.38275 5.87376 4.35993 5.9194 4.33331 5.96503L4.3219 5.98405C4.29148 6.02969 4.25345 6.07532 4.21542 6.11335C4.15838 6.1704 4.09753 6.21604 4.02528 6.25407C3.94162 6.29971 3.84655 6.33393 3.75148 6.34915C3.70584 6.35675 3.66401 6.36056 3.61838 6.36056C3.57275 6.36056 3.52331 6.36056 3.47768 6.34915C3.45106 6.34534 3.42824 6.33774 3.40162 6.33393C3.33697 6.31492 3.27613 6.2921 3.21908 6.26167H3.21528C3.14303 6.21984 3.07838 6.1704 3.02514 6.11335C2.99092 6.07913 2.96049 6.0449 2.93387 6.00687C2.84641 5.88517 2.79317 5.74065 2.77796 5.58853C2.77796 5.56191 2.77796 5.53909 2.77796 5.51247C2.77796 5.49725 2.77796 5.48585 2.77796 5.47063C2.78937 5.26527 2.87303 5.07131 3.01373 4.92679L3.02514 4.91538L3.04415 4.89637C3.20387 4.74805 3.40922 4.66438 3.62599 4.66438H3.63359L3.61838 4.66058ZM4.74782 6.26548H10.163C10.2125 6.34154 10.2695 6.41 10.3342 6.47465C10.5813 6.72185 10.9236 6.87397 11.3001 6.87397C11.6765 6.87397 12.0188 6.72185 12.266 6.47465C12.5132 6.22745 12.6653 5.88517 12.6653 5.50866C12.6653 5.32231 12.6273 5.14357 12.5626 4.98384C12.4942 4.8165 12.3915 4.66818 12.266 4.54268C12.1405 4.41718 11.9884 4.3145 11.8249 4.24604C11.6651 4.18139 11.4902 4.14336 11.3001 4.14336H3.61077C3.42444 4.14336 3.24951 4.18139 3.08599 4.24604C2.91866 4.3145 2.77035 4.41718 2.64486 4.54268C2.51937 4.66818 2.41669 4.82031 2.34824 4.98384C2.28359 5.14357 2.24556 5.32231 2.24556 5.50866C2.24556 5.88517 2.39768 6.22745 2.64486 6.47465C2.89204 6.72185 3.2343 6.87397 3.61077 6.87397C3.98725 6.87397 4.32951 6.72185 4.57669 6.47465C4.64134 6.41 4.69838 6.34154 4.74782 6.26548Z" fill="black"/>
<path d="M24.6232 2.21136L27.251 10.3994L29.8711 2.21136H33.6055V13.9819H30.761V11.2323L31.0348 5.60372L28.1903 13.9781H26.3155L23.4634 5.59611L23.7372 11.2323V13.9819H20.9003V2.21136H24.627H24.6232Z" fill="black"/>
<path d="M39.5149 14.1451C38.1726 14.1451 37.0888 13.7458 36.256 12.9434C35.4233 12.1409 35.0126 11.1027 35.0126 9.81736V9.58918C35.0126 8.69549 35.1799 7.90449 35.5107 7.21996C35.8416 6.53543 36.3245 6.00683 36.9633 5.63034C37.6022 5.25385 38.3551 5.0675 39.2259 5.0675C40.4542 5.0675 41.4239 5.4478 42.135 6.21219C42.846 6.97657 43.2035 8.03759 43.2035 9.40284V10.4601H37.7885C37.8874 10.9506 38.0965 11.3347 38.4274 11.6161C38.7582 11.8976 39.1803 12.0383 39.7051 12.0383C40.5683 12.0383 41.2413 11.7378 41.7243 11.1332L42.9677 12.6049C42.6293 13.0727 42.1464 13.4453 41.5227 13.723C40.8991 14.0006 40.2298 14.1413 39.5149 14.1413V14.1451ZM39.2069 7.17432C38.4083 7.17432 37.9368 7.70293 37.7847 8.76014H40.534V8.55098C40.5454 8.11365 40.4352 7.77519 40.2032 7.5356C39.9712 7.29602 39.6404 7.17432 39.2107 7.17432H39.2069Z" fill="black"/>
<path d="M47.4704 3.05945V5.23481H48.9079V7.12495H47.4704V11.1258C47.4704 11.4529 47.5312 11.6848 47.6491 11.8142C47.767 11.9435 48.0028 12.0081 48.3526 12.0081C48.6226 12.0081 48.847 11.9929 49.0333 11.9587V13.9058C48.5428 14.0618 48.0294 14.1416 47.497 14.1416C46.5577 14.1416 45.8656 13.9211 45.4207 13.4799C44.9719 13.0387 44.7514 12.3656 44.7514 11.4681V7.12495H43.6371V5.23481H44.7514V3.05945H47.4742H47.4704Z" fill="black"/>
<path d="M49.3914 9.52836C49.3914 8.65369 49.5625 7.87789 49.901 7.19717C50.2394 6.51644 50.73 5.99164 51.365 5.62656C52 5.26148 52.7492 5.07513 53.6048 5.07513C54.9129 5.07513 55.9472 5.48205 56.7001 6.29207C57.4531 7.10209 57.8333 8.20875 57.8333 9.60442V9.7033C57.8333 11.0685 57.453 12.1486 56.6963 12.9472C55.9396 13.7458 54.9129 14.1489 53.62 14.1489C52.3271 14.1489 51.3764 13.7762 50.6197 13.0309C49.8629 12.2855 49.4599 11.2739 49.399 9.99612L49.3914 9.53597V9.52836ZM52.1179 9.69949C52.1179 10.5095 52.2434 11.099 52.4982 11.4793C52.753 11.8596 53.1256 12.0459 53.62 12.0459C54.5896 12.0459 55.084 11.3005 55.1068 9.80597V9.53216C55.1068 7.96536 54.6049 7.17815 53.6048 7.17815C52.6921 7.17815 52.2016 7.85507 52.1255 9.20892L52.1179 9.7033V9.69949Z" fill="black"/>
<path d="M67.1542 9.67306C67.1542 11.0308 66.85 12.1146 66.2377 12.9285C65.6255 13.7386 64.8003 14.1455 63.7583 14.1455C62.9559 14.1455 62.2942 13.8527 61.777 13.2632V17.3477H59.0542V5.23486H61.6021L61.6819 6.04492C62.2029 5.3984 62.8912 5.07513 63.7431 5.07513C64.8193 5.07513 65.6597 5.47066 66.2567 6.2693C66.8538 7.06795 67.1542 8.15563 67.1542 9.54756V9.67687V9.67306ZM64.4314 9.50573C64.4314 7.95407 63.9788 7.17824 63.0738 7.17824C62.4273 7.17824 61.9976 7.41023 61.7808 7.8742V11.3198C62.0166 11.8066 62.4539 12.0462 63.089 12.0462C63.956 12.0462 64.4048 11.297 64.4314 9.79857V9.50573Z" fill="black"/>
<path d="M68.3324 2.97962C68.3324 2.59171 68.4731 2.27225 68.7545 2.02505C69.0359 1.77785 69.3972 1.65234 69.8459 1.65234C70.2946 1.65234 70.6559 1.77785 70.9373 2.02505C71.2187 2.27225 71.3594 2.59171 71.3594 2.97962C71.3594 3.36753 71.2187 3.68699 70.9373 3.93419C70.6559 4.1814 70.2946 4.3069 69.8459 4.3069C69.3972 4.3069 69.0359 4.1814 68.7545 3.93419C68.4731 3.68699 68.3324 3.36753 68.3324 2.97962ZM71.2263 13.9819H68.4921V5.23485H71.2263V13.9819Z" fill="black"/>
<path d="M72.5615 9.52836C72.5615 8.65369 72.7326 7.87789 73.0711 7.19717C73.4095 6.51644 73.9001 5.99164 74.5351 5.62656C75.1701 5.26148 75.9193 5.07513 76.7749 5.07513C78.083 5.07513 79.1173 5.48205 79.8702 6.29207C80.6232 7.10209 81.0034 8.20875 81.0034 9.60442V9.7033C81.0034 11.0685 80.6232 12.1486 79.8664 12.9472C79.1097 13.7458 78.083 14.1489 76.7901 14.1489C75.4972 14.1489 74.5465 13.7762 73.7898 13.0309C73.0331 12.2855 72.63 11.2739 72.5691 9.99612L72.5615 9.53597V9.52836ZM75.288 9.69949C75.288 10.5095 75.4135 11.099 75.6683 11.4793C75.9231 11.8596 76.2957 12.0459 76.7901 12.0459C77.7598 12.0459 78.2541 11.3005 78.2769 9.80597V9.53216C78.2769 7.96536 77.775 7.17815 76.7749 7.17815C75.8622 7.17815 75.3717 7.85507 75.2956 9.20892L75.288 9.7033V9.69949Z" fill="black"/>
</g>
<defs>
<clipPath id="clip0_365_239">
<rect width="81" height="18" fill="white" transform="translate(0 0.5)"/>
</clipPath>
</defs>
</svg>
