<?xml version="1.0" encoding="UTF-8" standalone="no"?>
<svg
   width="127"
   height="27"
   viewBox="0 0 127 27"
   fill="none"
   version="1.1"
   id="svg1"
   sodipodi:docname="uchicago.svg"
   inkscape:version="1.4 (e7c3feb1, 2024-10-09)"
   xmlns:inkscape="http://www.inkscape.org/namespaces/inkscape"
   xmlns:sodipodi="http://sodipodi.sourceforge.net/DTD/sodipodi-0.dtd"
   xmlns="http://www.w3.org/2000/svg"
   xmlns:svg="http://www.w3.org/2000/svg">
  <defs
     id="defs1" />
  <sodipodi:namedview
     id="namedview1"
     pagecolor="#505050"
     bordercolor="#ffffff"
     borderopacity="1"
     inkscape:showpageshadow="0"
     inkscape:pageopacity="0"
     inkscape:pagecheckerboard="1"
     inkscape:deskcolor="#505050"
     inkscape:zoom="3.0654746"
     inkscape:cx="43.386431"
     inkscape:cy="15.005833"
     inkscape:window-width="1584"
     inkscape:window-height="509"
     inkscape:window-x="0"
     inkscape:window-y="25"
     inkscape:window-maximized="0"
     inkscape:current-layer="svg1" />
  <path
     d="M126.748 2.57267L126.757 2.55685V2.53787C126.742 2.23106 126.732 1.83251 126.732 1.42132V1.33908L126.653 1.35806C126.549 1.3802 126.027 1.3802 125.521 1.3802H123.958C123.639 1.3802 123.354 1.37387 122.978 1.35489H122.962L122.946 1.36122C122.876 1.39601 122.864 1.49407 122.861 1.5257C122.854 1.59845 122.876 1.65855 122.921 1.68701L123.085 1.71548C123.515 1.76609 123.537 1.81354 123.537 2.72133V5.78C123.537 6.6783 123.515 6.72575 123.085 6.77636L122.851 6.80483L122.829 6.82064C122.781 6.86809 122.772 6.94716 122.781 7.0041C122.791 7.06736 122.819 7.1148 122.861 7.13694L122.876 7.14327H122.892C123.291 7.12746 123.575 7.11797 123.952 7.11797C124.293 7.11797 124.588 7.12746 125.081 7.14327H125.097L125.113 7.13694C125.17 7.10848 125.192 7.03257 125.195 6.97247C125.198 6.89972 125.179 6.83962 125.135 6.81431L124.815 6.77952C124.382 6.74156 124.357 6.68779 124.357 5.78316V4.60334C124.357 4.43887 124.357 4.43887 124.572 4.43887H125.151C125.448 4.43887 125.672 4.44519 125.783 4.47682C125.903 4.51478 125.967 4.59385 126.011 4.75201L126.1 5.10311L126.115 5.11576C126.198 5.18851 126.381 5.18534 126.432 5.10311L126.444 5.08729V5.06831C126.444 4.97975 126.438 4.86588 126.432 4.73936C126.422 4.58437 126.413 4.4104 126.413 4.24276C126.413 4.07195 126.422 3.8885 126.432 3.72718C126.438 3.59433 126.444 3.4773 126.444 3.38241V3.36343L126.432 3.34761C126.391 3.28752 126.305 3.28119 126.27 3.28119C126.201 3.28119 126.137 3.30333 126.106 3.34129L126.017 3.7082C125.97 3.9138 125.913 3.93594 125.846 3.95808C125.758 3.98655 125.495 4.00553 125.144 4.00553H124.565C124.35 4.00553 124.35 4.00553 124.35 3.84105V2.0476C124.35 1.77242 124.35 1.77242 124.54 1.77242H125.059C125.41 1.77242 125.688 1.77242 125.865 1.82302C126.229 1.91792 126.34 2.16147 126.413 2.57899L126.416 2.60113L126.435 2.61695C126.466 2.64542 126.514 2.66123 126.564 2.66123C126.637 2.66123 126.716 2.63276 126.748 2.57267ZM121.045 4.22378C121.045 2.78775 120.102 1.24419 118.031 1.24419C116.269 1.24419 114.94 2.56318 114.94 4.30918C114.94 5.77367 116.003 7.25398 118.031 7.25398C119.751 7.25714 121.045 5.95397 121.045 4.22378ZM120.064 4.48947C120.064 6.2418 119.027 6.86176 118.141 6.86176C116.389 6.86176 115.921 5.08729 115.921 4.03716C115.921 2.26585 116.98 1.63957 117.888 1.63957C119.495 1.63957 120.064 3.17365 120.064 4.48947ZM112.593 19.011C112.593 22.6802 115.326 25.9223 119.852 25.9223C123.787 25.9223 126.928 22.9237 126.928 18.8054C126.928 15.2185 124.562 11.8119 119.852 11.8119C115.652 11.8119 112.593 14.9339 112.593 19.011ZM114.633 18.3594C114.633 13.8932 117.385 12.4477 119.508 12.4477C123.401 12.4477 124.891 16.0757 124.891 19.4412C124.891 23.4583 122.566 25.2928 120.121 25.2928C116.101 25.2897 114.633 21.377 114.633 18.3594ZM110.648 1.68385C110.692 1.64589 110.714 1.5858 110.708 1.51937C110.702 1.45295 110.67 1.39601 110.623 1.36755L110.604 1.35489H110.585C109.981 1.38969 109.623 1.38969 108.987 1.35489H108.972L108.956 1.36122C108.908 1.38652 108.877 1.43397 108.867 1.49091C108.855 1.56049 108.877 1.63008 108.924 1.67752L108.94 1.69334L109.114 1.71232C109.278 1.7313 109.383 1.77242 109.411 1.79456C109.386 1.91475 109.089 2.46829 108.908 2.80357L108.87 2.87632C108.665 3.2717 108.431 3.69871 108.13 4.21113C107.906 3.80626 107.687 3.36027 107.475 2.93009C107.393 2.76245 107.311 2.59165 107.226 2.42717C107.166 2.30381 106.973 1.87047 106.969 1.80088C106.969 1.78507 107.007 1.75028 107.27 1.71232L107.403 1.69334L107.419 1.67752C107.466 1.63008 107.485 1.54784 107.466 1.47509C107.453 1.41816 107.415 1.37387 107.365 1.35806L107.352 1.35489H107.339C107.131 1.37071 106.827 1.3802 106.435 1.3802C106.043 1.3802 105.729 1.37071 105.454 1.35489H105.435L105.419 1.36438C105.378 1.38969 105.35 1.43397 105.34 1.49091C105.328 1.56049 105.347 1.63008 105.388 1.67752L105.404 1.6965L105.663 1.74395C105.888 1.78191 106.002 1.80088 106.286 2.35442L107.289 4.30918C107.529 4.77099 107.555 4.86588 107.555 5.33401V5.76735C107.555 6.69096 107.532 6.73524 107.105 6.78268L106.818 6.81115L106.802 6.82697C106.754 6.87441 106.748 6.95349 106.757 7.01359C106.767 7.07685 106.795 7.12429 106.837 7.14327L106.852 7.1496H106.868C107.327 7.13378 107.624 7.12429 107.978 7.12429C108.323 7.12429 108.627 7.13378 109.133 7.1496H109.149L109.165 7.14327C109.206 7.12429 109.234 7.07368 109.244 7.01359C109.253 6.95665 109.247 6.87757 109.196 6.82697L109.18 6.81115L108.832 6.78268C108.44 6.75422 108.383 6.68779 108.383 5.76735V5.32452C108.383 4.68875 108.402 4.62549 108.772 3.98022L109.307 3.05345C109.354 2.97121 109.402 2.88897 109.446 2.8099C109.781 2.22473 110.022 1.80405 110.382 1.74079L110.639 1.6965L110.648 1.68385ZM107.355 12.0808C107.007 11.9985 105.929 11.774 104.765 11.774C101.684 11.774 99.6659 12.7324 98.3026 14.1589C97.0374 15.5032 96.4681 17.2587 96.4681 18.992C96.4681 20.7855 97.1197 22.3955 98.3438 23.6196C99.9126 25.2106 102.136 25.8843 104.562 25.8843C105.663 25.8843 107.131 25.6408 108.212 25.3529C108.598 25.2517 108.968 25.1695 109.212 25.1695C109.294 25.1094 109.294 24.986 109.234 24.9259C108.867 24.7836 108.744 24.2933 108.744 23.4772V22.3354C108.744 21.2947 108.763 20.7254 109.62 20.621L109.946 20.5799C110.088 20.4565 110.069 20.1529 109.927 20.0706C109.253 20.1118 108.56 20.1307 107.766 20.1307C106.565 20.1307 105.442 20.1118 104.85 20.0706C104.708 20.1307 104.686 20.4977 104.85 20.5799L105.748 20.6811C107.014 20.8235 107.074 20.9468 107.074 22.658V23.4741C107.074 24.1257 106.973 24.4926 106.871 24.6349C106.647 24.9797 105.891 25.2454 104.629 25.2454C100.529 25.2454 98.5114 22.1646 98.5114 18.2519C98.5114 15.1932 100.245 12.3781 104.202 12.3781C106.283 12.3781 107.811 13.0708 108.38 15.2723C108.503 15.3957 108.87 15.3735 108.93 15.2122C108.747 13.9881 108.624 12.9285 108.624 12.2548C108.374 12.3054 107.744 12.163 107.355 12.0808ZM104.195 1.25051L104.202 1.22837L104.192 1.20623C104.161 1.14297 104.072 1.13664 104.037 1.13664C104.015 1.13664 103.983 1.13981 103.958 1.1493L103.936 1.15879L103.923 1.17776C103.816 1.36755 103.768 1.38336 103.316 1.38336H99.8051C99.4255 1.38336 99.2547 1.36438 99.2199 1.1746L99.2168 1.15562L99.201 1.13981C99.1788 1.11767 99.1377 1.10501 99.0839 1.10501C99.0649 1.10501 98.9953 1.10818 98.9574 1.13032L98.9352 1.14613L98.9289 1.1746C98.8688 1.51305 98.7423 2.05076 98.6095 2.43033L98.6 2.45563L98.6126 2.48094C98.6632 2.58216 98.8372 2.63277 98.9321 2.56318L98.9447 2.55369L98.9511 2.53787C99.0365 2.34176 99.1187 2.15514 99.318 1.97485C99.5046 1.80405 99.9284 1.77874 100.321 1.77874H100.789C100.979 1.77874 100.979 1.77874 100.979 1.98434V5.78316C100.979 6.70361 100.925 6.74473 100.51 6.77952L100.204 6.80483L100.175 6.81431C100.125 6.84594 100.096 6.90921 100.099 6.98512C100.102 7.04205 100.125 7.1148 100.181 7.14011L100.197 7.14643H100.213C100.732 7.13062 101.045 7.12113 101.393 7.12113C101.725 7.12113 102 7.13062 102.503 7.14643H102.519L102.535 7.14011C102.604 7.10532 102.617 7.00726 102.617 6.97563C102.62 6.90288 102.601 6.84278 102.557 6.81431L102.253 6.77952C101.829 6.74156 101.804 6.68779 101.804 5.78316V1.97169C101.804 1.88629 101.804 1.80405 101.817 1.79139C101.833 1.77558 101.924 1.77558 101.984 1.77558H102.585C103.041 1.77558 103.351 1.842 103.531 1.97485C103.61 2.03495 103.68 2.25004 103.718 2.55053L103.721 2.5695L103.734 2.58532C103.765 2.62328 103.822 2.64542 103.889 2.64542C103.968 2.64542 104.037 2.61062 104.066 2.55369L104.075 2.53787L104.072 2.5189C104.047 2.27534 104.104 1.59212 104.195 1.25051ZM96.4491 5.76418V2.73715C96.4491 1.80721 96.4744 1.75027 96.9077 1.71548L97.1386 1.6965L97.1513 1.68701C97.1924 1.65855 97.2146 1.59845 97.2114 1.5257C97.2082 1.49723 97.1987 1.39601 97.1292 1.36122L97.1133 1.35489H97.0975C96.6958 1.37071 96.3953 1.3802 96.0474 1.3802C95.6836 1.3802 95.3895 1.37071 94.9783 1.35489H94.9625L94.9466 1.36122C94.8771 1.39601 94.8644 1.49723 94.8644 1.5257C94.8612 1.59845 94.8802 1.65855 94.9245 1.68701L94.9372 1.6965L95.1649 1.71548C95.5982 1.75344 95.6236 1.81037 95.6236 2.73715V5.76102C95.6236 6.67514 95.6014 6.72259 95.1617 6.77636L94.9277 6.80483L94.9119 6.82064C94.8644 6.86809 94.8549 6.94716 94.8644 7.00726C94.8739 7.07052 94.9024 7.11797 94.9435 7.13694L94.9593 7.14327H94.9751C95.4085 7.12746 95.6931 7.11797 96.0442 7.11797C96.3827 7.11797 96.6642 7.12746 97.0944 7.14327H97.1102L97.126 7.13694C97.1956 7.10215 97.2082 7.00094 97.2082 6.97247C97.2114 6.89972 97.1924 6.83962 97.1481 6.81115L96.9077 6.77636C96.4712 6.72575 96.4491 6.6783 96.4491 5.76418ZM94.7347 25.0493C93.8586 24.9481 93.5929 24.6413 93.0014 22.8889L90.2084 14.6935C89.9016 13.7952 89.5758 12.8589 89.3101 11.9606C89.269 11.8183 89.1266 11.7771 89.0033 11.7771C88.7787 12.0428 88.4339 12.4097 87.9437 12.5521C88.0038 12.8779 87.8836 13.2638 87.5957 14.0008L85.5176 19.5076C84.6604 21.7913 84.0911 23.1167 83.7242 24.0561C83.4395 24.7899 82.9903 25.0145 82.5001 25.0556L81.8263 25.1157C81.703 25.2169 81.7441 25.5427 81.8675 25.625C82.4178 25.606 83.1517 25.5649 83.8254 25.5649C84.7838 25.5838 85.4164 25.5838 85.9478 25.625C86.1312 25.5427 86.1312 25.2169 85.9889 25.1157L85.3152 25.0556C84.8249 25.0145 84.7237 24.8911 84.7237 24.6476C84.7237 24.423 84.866 23.8726 85.1728 22.9553L85.8877 20.814C86.03 20.387 86.1534 20.3237 86.6626 20.3237H89.7403C90.3508 20.3237 90.433 20.3838 90.5753 20.8329L91.4705 23.6069C91.6349 24.0972 91.7362 24.4641 91.7362 24.6887C91.7362 24.8943 91.4515 25.0145 91.0245 25.0556L90.433 25.1157C90.2906 25.2169 90.3096 25.5427 90.4741 25.625C91.0656 25.606 91.8405 25.5649 92.8179 25.5649C93.7352 25.5649 94.4501 25.5838 95.2851 25.625C95.3863 25.5427 95.4274 25.2169 95.2851 25.1157L94.7347 25.0493ZM89.4746 19.5013H86.9663C86.3938 19.5013 86.3748 19.4823 86.5393 19.011L87.8235 15.4621C88.048 14.8516 88.2505 14.3613 88.3138 14.2601H88.3517C88.4751 14.5037 88.6585 15.0572 88.8198 15.5443L89.9206 18.8687C90.104 19.4222 90.0629 19.5013 89.4746 19.5013ZM90.6228 2.5189C90.6228 2.18994 90.7461 1.63957 91.5685 1.63957C92.3182 1.63957 92.5459 2.12668 92.6629 2.55053L92.6756 2.57583C92.704 2.60746 92.7483 2.62644 92.8053 2.62644C92.8685 2.62644 92.9571 2.60113 92.9919 2.5442L93.0014 2.52838V2.50941C93.0014 2.16147 92.9286 1.67752 92.8464 1.44979L92.8306 1.40867H92.7863C92.7262 1.40867 92.6123 1.39285 92.5048 1.36122C92.3024 1.30745 91.9829 1.24735 91.6982 1.24735C90.6228 1.24735 89.8984 1.86098 89.8984 2.7751C89.8984 3.55005 90.4899 4.0593 90.8442 4.2902L91.6508 4.81843C92.2359 5.19483 92.3182 5.58705 92.3182 5.95397C92.3182 6.40628 92.0114 6.86492 91.3218 6.86492C90.4615 6.86492 90.085 6.20068 89.9237 5.64715L89.9143 5.62817C89.8889 5.59021 89.8415 5.56807 89.7846 5.56807C89.7276 5.56807 89.6454 5.59021 89.6043 5.65031L89.5916 5.66929V5.69143C89.6074 6.07416 89.7181 6.70361 89.8288 6.90921L89.8383 6.92502L89.8541 6.93451C90.0218 7.03256 90.4868 7.25714 91.2111 7.25714C92.3308 7.25714 93.0868 6.59923 93.0868 5.61868C93.0868 4.93863 92.7293 4.38826 91.9955 3.93278L91.3155 3.50893C91.0561 3.34761 90.6228 3.006 90.6228 2.5189ZM88.4814 7.15592C88.5193 7.12429 88.5415 7.07368 88.532 7.02624C88.5257 6.97879 88.4972 6.944 88.4561 6.92502L88.4371 6.92186C88.2347 6.90604 88.0291 6.8238 87.8867 6.70045C87.3016 6.21017 86.8366 5.49216 86.1913 4.45468C86.1471 4.38193 86.1407 4.3503 86.1407 4.33765C86.4222 4.22062 87.2193 3.80309 87.2193 2.86683C87.2193 2.15514 86.8176 1.79456 86.4792 1.62059C86.0522 1.38969 85.5081 1.35806 85.0305 1.35806C84.2524 1.35806 83.6482 1.3802 83.1295 1.42448L83.1074 1.43081C83.0568 1.45611 83.0251 1.50988 83.0188 1.57631C83.0125 1.64906 83.0409 1.71864 83.0884 1.75344L83.101 1.76293L83.3889 1.79772C83.6672 1.83251 83.7052 1.89261 83.7052 2.72766V5.78C83.7052 6.6783 83.683 6.72575 83.2529 6.77636L83.0156 6.80483L82.9998 6.8238C82.9524 6.88074 82.9461 6.95982 82.9587 7.01675C82.9714 7.07368 82.9967 7.1148 83.0378 7.13694L83.0536 7.14327H83.0694C83.4458 7.12746 83.7558 7.11797 84.129 7.11797C84.4801 7.11797 84.7743 7.12746 85.138 7.14327H85.1539L85.1697 7.13694C85.2329 7.10531 85.2488 7.02308 85.2519 6.99145C85.2614 6.91553 85.2393 6.85227 85.1981 6.81748L85.1887 6.80483L84.9925 6.77636C84.556 6.71626 84.5402 6.6783 84.5402 5.78V4.70772C84.5402 4.58753 84.5402 4.58753 84.8755 4.58753C85.2013 4.58753 85.312 4.6666 85.4259 4.83108C85.5556 5.0177 85.7042 5.25493 85.8497 5.48583C86.0015 5.72623 86.1439 5.95397 86.2578 6.11212C86.8398 6.944 87.2826 7.2097 88.0702 7.2097C88.2347 7.2097 88.377 7.19388 88.4656 7.16541L88.4814 7.15592ZM85.9193 3.99604C85.6758 4.1795 85.3468 4.2048 85.0843 4.2048C84.7015 4.2048 84.5813 4.18898 84.5465 4.1795C84.5371 4.1447 84.5371 4.04348 84.5371 3.94543V1.95587C84.5371 1.76609 84.5371 1.75027 85.0242 1.75027C85.9794 1.75027 86.3179 2.42084 86.3179 2.99335C86.321 3.46465 86.1913 3.78411 85.9193 3.99604ZM81.529 5.91285L81.5322 5.89387L81.5227 5.87489C81.4847 5.79265 81.3962 5.75786 81.3234 5.75786C81.2823 5.75786 81.2443 5.77051 81.2127 5.78949L81.1937 5.81479C80.9502 6.3019 80.7319 6.54862 80.618 6.60872C80.4346 6.70044 80.1784 6.72891 79.5584 6.72891C78.8499 6.72891 78.6696 6.64351 78.5779 6.55494C78.4577 6.42842 78.4324 6.15007 78.4324 5.71674V4.51794C78.4324 4.35346 78.4324 4.35346 78.6475 4.35346H79.1409C79.4382 4.35346 79.6596 4.35979 79.7798 4.39458C79.8969 4.42305 79.957 4.50213 79.9949 4.66977L80.0708 5.00189L80.0835 5.03035C80.1151 5.06831 80.1752 5.09045 80.2416 5.09045C80.3207 5.09045 80.384 5.06199 80.4093 5.01138L80.4188 4.99556V4.97658C80.4188 4.89434 80.4125 4.78364 80.4061 4.66028C80.3966 4.50529 80.3871 4.33132 80.3871 4.16052C80.3871 3.98339 80.3966 3.79993 80.4061 3.64178C80.4125 3.51209 80.4188 3.39506 80.4188 3.30333V3.28752L80.4093 3.2717C80.3808 3.22109 80.3176 3.19263 80.2385 3.19263C80.1721 3.19263 80.112 3.21477 80.0803 3.25272L79.9981 3.62912C79.9601 3.82207 79.9127 3.8537 79.8368 3.87584C79.745 3.90747 79.4888 3.92329 79.1346 3.92329H78.6411C78.426 3.92329 78.4261 3.92329 78.4261 3.74932V2.05076C78.4261 1.77558 78.4261 1.77558 78.6158 1.77558H79.2263C79.5869 1.77558 79.8621 1.78507 80.036 1.82619C80.4219 1.92424 80.501 2.1678 80.618 2.53787L80.6339 2.58848L80.6465 2.61062C80.675 2.64542 80.7256 2.6644 80.7857 2.6644C80.8426 2.6644 80.9249 2.64542 80.9628 2.58848L80.9755 2.5695L80.9628 2.44298C80.9185 1.94955 80.8774 1.52886 80.8331 1.39918L80.8142 1.34224L80.7572 1.35489C80.6623 1.37704 80.1373 1.37704 79.6248 1.37704H78.0275C77.6985 1.37704 77.4202 1.37071 77.028 1.35173H77.0122L76.9964 1.35806C76.9268 1.39285 76.9141 1.4909 76.9109 1.52254C76.9046 1.59845 76.9268 1.65538 76.971 1.68385L77.1355 1.71232C77.572 1.76293 77.5973 1.81986 77.5973 2.71817V5.77683C77.5973 6.69728 77.5436 6.7384 77.1292 6.7732L76.8256 6.80166L76.8097 6.81748C76.7623 6.86492 76.7528 6.944 76.7623 7.00093C76.7718 7.06419 76.8002 7.11164 76.8414 7.13378L76.8572 7.14011H76.873C77.3633 7.12429 77.6606 7.1148 78.0275 7.1148H78.793C79.5331 7.1148 80.2796 7.12429 81.0704 7.14011H81.1115L81.1305 7.10215C81.257 6.86809 81.4689 6.21017 81.529 5.91285ZM75.7027 1.68069C75.7501 1.63324 75.7564 1.55417 75.7501 1.49723C75.7406 1.43397 75.7153 1.38969 75.6742 1.36438L75.6584 1.35489H75.6394C75.3547 1.37071 75.0954 1.3802 74.8202 1.3802C74.4849 1.3802 74.1654 1.37071 73.9409 1.35489H73.9219L73.9061 1.36438C73.8586 1.39285 73.827 1.44662 73.8207 1.51621C73.8143 1.58263 73.8365 1.64589 73.8776 1.68385L73.8934 1.6965L74.0642 1.71548C74.3615 1.75027 74.39 1.81037 74.39 1.81037C74.39 1.86731 74.3805 1.94955 74.3173 2.11719C74.1718 2.48726 73.7669 3.46148 73.5265 4.01818C73.4632 4.16368 73.3842 4.3503 73.2956 4.55906C73.1343 4.94179 72.9382 5.40676 72.7705 5.77051C72.3688 4.8469 71.9987 3.92013 71.6223 2.97437C71.3725 2.36391 71.2301 1.92108 71.2048 1.81037C71.2175 1.78507 71.2902 1.74711 71.5464 1.71232L71.6919 1.69334L71.7077 1.68069C71.752 1.64273 71.7742 1.57947 71.7678 1.51305C71.7615 1.44662 71.7299 1.38969 71.6824 1.36122L71.6666 1.35173H71.6476C71.2712 1.37071 70.9739 1.37704 70.6228 1.37704C70.2686 1.37704 69.9965 1.37071 69.7435 1.35173H69.7214L69.7024 1.36438C69.6518 1.39601 69.6201 1.45295 69.617 1.51621C69.6106 1.58263 69.6359 1.64273 69.6771 1.68069L69.6929 1.69334L69.8668 1.71232C70.1958 1.75028 70.3097 1.9021 70.5026 2.37023L71.9987 6.05835C72.1759 6.50117 72.3087 6.87757 72.3878 7.18123L72.3973 7.21286L72.4289 7.22551C72.4795 7.24449 72.5301 7.25714 72.5807 7.25714C72.6282 7.25714 72.6756 7.24449 72.7104 7.22235L72.7294 7.2097L72.7357 7.18755C72.8812 6.73208 73.2893 5.72939 73.6182 4.97658L74.0769 3.93278C74.4722 3.0408 74.798 2.36707 75.0258 1.9875C75.1333 1.81354 75.2472 1.73446 75.4148 1.72181L75.6932 1.70283L75.7027 1.68069ZM70.1547 13.5073C68.6048 14.7093 67.5863 16.6482 67.5863 18.9098C67.5863 21.5415 68.8515 23.395 70.4805 24.5179C71.9703 25.5174 73.7226 25.8843 75.5572 25.8843C76.8635 25.8843 78.3312 25.5775 78.7803 25.4162C79.0049 25.334 79.2484 25.2549 79.4952 25.2138C79.802 24.8279 80.3302 23.4804 80.4725 22.4208C80.3903 22.2785 80.0835 22.2373 79.9443 22.3386C79.4762 23.5405 78.3122 25.2549 75.6837 25.2549C72.3404 25.2549 69.6264 22.8889 69.6264 18.6062C69.6264 14.3867 72.2771 12.4066 75.3959 12.4066C78.3533 12.4066 79.2706 13.9976 79.5774 15.383C79.7197 15.5064 80.0266 15.4842 80.1278 15.3419C79.9665 14.0988 79.8621 12.8146 79.8431 12.3433C79.6596 12.3655 79.5173 12.3243 79.2738 12.2611C78.3153 11.9954 76.7655 11.7708 75.6647 11.7708C73.5392 11.774 71.6413 12.3465 70.1547 13.5073ZM67.5452 5.76418V2.73715C67.5452 1.8167 67.5736 1.75027 68.0038 1.71548L68.2316 1.6965L68.2442 1.68701C68.2853 1.65855 68.3075 1.59845 68.3043 1.5257C68.3011 1.49723 68.2916 1.39601 68.2221 1.36122L68.2062 1.35489H68.1904C67.7887 1.37071 67.4882 1.3802 67.1403 1.3802C66.7766 1.3802 66.4824 1.37071 66.0712 1.35489H66.0554L66.0396 1.36122C65.97 1.39601 65.9573 1.49407 65.9542 1.5257C65.951 1.59845 65.97 1.65855 66.0143 1.68701L66.0269 1.6965L66.2546 1.71548C66.6848 1.75344 66.7133 1.81986 66.7133 2.73715V5.76102C66.7133 6.67514 66.6911 6.72259 66.2515 6.77636L66.0174 6.80483L66.0016 6.82064C65.9542 6.86809 65.9447 6.94716 65.9542 7.00726C65.9636 7.07052 65.9921 7.11797 66.0332 7.13694L66.049 7.14327H66.0649C66.495 7.12746 66.7797 7.11797 67.134 7.11797C67.4693 7.11797 67.7634 7.12746 68.1841 7.14327H68.1999L68.2157 7.13694C68.2853 7.10215 68.298 7.00094 68.3011 6.97247C68.3043 6.89972 68.2853 6.83962 68.241 6.81115L68.0006 6.77636C67.5673 6.72575 67.5452 6.6783 67.5452 5.76418ZM63.2814 22.4587V15.1996C63.2814 13.0392 63.3225 12.6913 64.5245 12.59L65.0337 12.5489C65.1571 12.4667 65.116 12.0998 64.9926 12.0397C63.9741 12.0808 63.2814 12.0998 62.4653 12.0998C61.6081 12.0998 60.9154 12.0776 59.8969 12.0397C59.7736 12.0998 59.7324 12.4667 59.8558 12.5489L60.3651 12.59C61.567 12.6913 61.6081 13.0392 61.6081 15.1996V22.4587C61.6081 24.6191 61.567 24.9069 60.3651 25.0493L59.8558 25.1094C59.7324 25.2327 59.7736 25.5585 59.8969 25.6186C60.9154 25.5775 61.6113 25.5585 62.4653 25.5585C63.2814 25.5585 63.9741 25.5775 64.9926 25.6186C65.116 25.5585 65.1571 25.1916 65.0337 25.1094L64.5245 25.0493C63.3225 24.9069 63.2814 24.6223 63.2814 22.4587ZM64.3347 1.68069C64.3758 1.63957 64.3948 1.57314 64.3885 1.50672C64.3821 1.44662 64.3505 1.39601 64.3062 1.36755L64.2872 1.35489H64.2651C63.9867 1.37071 63.7653 1.3802 63.3953 1.3802C63.0948 1.3802 62.8164 1.37387 62.3957 1.35489H62.3831L62.3704 1.35806C62.3198 1.37703 62.285 1.42132 62.2755 1.48458C62.2629 1.56049 62.285 1.6364 62.3325 1.68069L62.3483 1.69334L62.5128 1.71232C62.8038 1.75028 62.9524 1.79139 62.9935 1.85149C63.0948 2.01281 63.1549 2.63909 63.1549 3.57535V5.39411C63.1549 5.47635 63.1549 5.57124 63.1485 5.63766C62.8544 5.33401 62.5444 4.98924 62.1617 4.55906L60.9787 3.23374C60.1373 2.29116 59.6565 1.6712 59.549 1.39601L59.53 1.34857L59.4794 1.35489C59.3782 1.37071 59.239 1.3802 59.0967 1.3802C58.948 1.3802 58.4957 1.3802 58.1414 1.35489H58.1224L58.1066 1.36438C58.0624 1.38652 58.0307 1.43397 58.0212 1.49091C58.0086 1.56049 58.0307 1.6364 58.0718 1.68069L58.0877 1.6965L58.2553 1.71548C58.483 1.74395 58.6507 1.80721 58.7424 1.89894C58.9006 2.07291 58.9132 2.22789 58.9132 2.46512V4.99873C58.9132 5.40992 58.9132 6.37149 58.8088 6.64667C58.7899 6.69096 58.7171 6.74789 58.4862 6.77952L58.2332 6.80799L58.2173 6.8238C58.1794 6.86176 58.1604 6.92186 58.1667 6.98512C58.1731 7.04838 58.2015 7.10215 58.2426 7.13378L58.2616 7.14643H58.2838C58.5779 7.13062 58.8057 7.12113 59.1631 7.12113C59.4509 7.12113 59.7388 7.12746 60.1531 7.14643H60.1753L60.1942 7.13378C60.2354 7.10531 60.2607 7.06103 60.2702 7.00726C60.2797 6.944 60.2638 6.88074 60.2259 6.83013L60.2101 6.80799L59.9159 6.77952C59.7135 6.76371 59.5711 6.71626 59.5332 6.64984C59.4414 6.48852 59.3877 5.85907 59.3877 4.92281V3.06927C59.3877 2.91744 59.3908 2.75612 59.4067 2.63909C59.5427 2.79092 59.7672 3.05661 59.9697 3.29384C60.1088 3.45832 60.2354 3.61015 60.3208 3.70504L62.2913 5.94764C62.9461 6.69412 63.2592 7.06419 63.3731 7.22551L63.3921 7.25398H63.4269C63.5376 7.25398 63.623 7.20337 63.6515 7.1148L63.6546 7.10215L63.6515 7.0895C63.6388 6.99144 63.6262 6.653 63.6262 5.60919V3.46465C63.6262 3.02815 63.623 2.12351 63.7464 1.85782C63.7558 1.83568 63.8602 1.76293 64.1734 1.71548L64.3125 1.6965L64.3347 1.68069ZM56.7181 1.66803C56.756 1.62375 56.775 1.551 56.7623 1.49091C56.7529 1.43713 56.7276 1.39601 56.6833 1.36755L56.6643 1.35806H56.6421C56.348 1.37387 56.1171 1.38336 55.7533 1.38336C55.4275 1.38336 55.1112 1.37387 54.7886 1.35806H54.7665L54.7475 1.37071C54.7095 1.39601 54.6811 1.44662 54.6716 1.50356C54.6621 1.56682 54.6779 1.63008 54.7159 1.6712L54.7348 1.69334L54.9752 1.71232C55.1713 1.72813 55.3042 1.78191 55.3485 1.85782C55.4465 2.03179 55.5034 2.64542 55.5034 3.58484V4.56222C55.5034 5.56491 55.2188 6.75738 53.8682 6.75738C52.7358 6.75738 52.2076 6.05835 52.2076 4.55274V2.71817C52.2076 1.81354 52.236 1.75028 52.6567 1.71232L52.8781 1.69334L52.8908 1.68385C52.9319 1.65538 52.954 1.59845 52.9509 1.5257C52.9477 1.4656 52.9224 1.39285 52.8686 1.36438L52.8528 1.35806H52.837C52.4353 1.37387 52.1475 1.38336 51.7964 1.38336C51.4484 1.38336 51.1479 1.37387 50.7462 1.35806H50.7304L50.7146 1.36438C50.6577 1.39285 50.6355 1.4656 50.6292 1.52254C50.6229 1.59529 50.645 1.65222 50.6893 1.68069L50.7051 1.69018L50.9328 1.70915C51.3535 1.74711 51.382 1.81037 51.382 2.715V4.72038C51.382 5.74837 51.5939 6.38098 52.0684 6.77636C52.4416 7.09583 52.992 7.2603 53.7005 7.2603C54.3711 7.2603 55.01 7.01359 55.3706 6.61821C55.7818 6.17538 55.9842 5.49849 55.9842 4.54325V3.58168C55.9842 3.15151 55.9842 2.14249 56.0981 1.8768C56.1361 1.79139 56.2816 1.72497 56.4682 1.70915L56.6991 1.69018L56.7181 1.66803ZM46.9506 12.5489C47.0739 12.4667 47.0328 12.0998 46.9094 12.0397C46.0333 12.0808 45.3406 12.0998 44.5435 12.0998C43.6673 12.0998 42.9746 12.0586 41.9751 12.0397C41.8517 12.0998 41.8106 12.4667 41.934 12.5489L42.4654 12.59C43.525 12.6723 43.6673 13.017 43.6673 15.1584V22.4999C43.6673 24.6413 43.6262 24.8437 42.4843 25.0493L42.1396 25.1094C42.0162 25.2327 42.0573 25.5585 42.1807 25.6186C42.9746 25.5997 43.6705 25.5585 44.5466 25.5585C45.3406 25.5585 46.0364 25.5775 47.1372 25.6186C47.2605 25.5585 47.3017 25.1916 47.1783 25.1094L46.5868 25.0493C45.445 24.9259 45.3437 24.6413 45.3437 22.4999V19.6247C45.3437 19.0142 45.3849 18.9731 46.3622 18.9731H52.1949C53.1723 18.9731 53.2134 19.0142 53.2134 19.6247V22.4999C53.2134 24.6413 53.2134 24.8437 51.9703 25.0493L51.5844 25.1094C51.4611 25.2327 51.5022 25.5585 51.6256 25.6186C52.5239 25.5775 53.2577 25.5585 54.0927 25.5585C54.8867 25.5585 55.5825 25.5775 56.5599 25.6186C56.6833 25.5585 56.7244 25.1916 56.601 25.1094L56.1108 25.0493C54.9278 24.9069 54.8867 24.6413 54.8867 22.4999V15.1584C54.8867 13.017 54.9278 12.7102 56.1108 12.59L56.5378 12.5489C56.6611 12.4667 56.62 12.0998 56.4966 12.0397C55.5794 12.0808 54.8867 12.0998 54.0896 12.0998C53.2545 12.0998 52.5618 12.0776 51.6224 12.0397C51.499 12.0998 51.4579 12.4667 51.5813 12.5489L51.9672 12.59C53.1691 12.7134 53.2102 13.017 53.2102 15.1584V17.5023C53.2102 18.1349 53.1691 18.1538 52.1917 18.1538H46.3591C45.3817 18.1538 45.3406 18.1349 45.3406 17.5023V15.1584C45.3406 13.017 45.3817 12.7102 46.5647 12.59L46.9506 12.5489ZM46.1282 5.91285L46.1313 5.89387L46.1218 5.87489C46.0839 5.79265 45.9953 5.75786 45.9226 5.75786C45.8815 5.75786 45.8435 5.77051 45.8119 5.78949L45.7897 5.81479C45.5462 6.3019 45.3279 6.54862 45.2172 6.60872C45.0338 6.70044 44.7776 6.72891 44.1576 6.72891C43.4491 6.72891 43.2688 6.64351 43.177 6.55494C43.0569 6.42526 43.0316 6.15007 43.0316 5.71674V4.51794C43.0316 4.35346 43.0315 4.35346 43.2466 4.35346H43.7401C44.0374 4.35346 44.2588 4.35979 44.379 4.39458C44.496 4.42305 44.5593 4.50213 44.5941 4.66977L44.67 5.00189L44.6827 5.03035C44.7143 5.06831 44.7744 5.09045 44.8408 5.09045C44.9199 5.09045 44.98 5.06199 45.0085 5.01138L45.0179 4.99556V4.97658C45.0179 4.89434 45.0116 4.78364 45.0053 4.66028C44.9958 4.50529 44.9863 4.33132 44.9863 4.16052C44.9863 3.98339 44.9958 3.79993 45.0053 3.64178C45.0116 3.51209 45.0211 3.39506 45.0211 3.30333V3.28752L45.0116 3.2717C44.9832 3.22109 44.9199 3.19263 44.8408 3.19263C44.7744 3.19263 44.7143 3.21477 44.6827 3.25272L44.6004 3.62912C44.5625 3.82207 44.515 3.8537 44.4391 3.87584C44.3474 3.90747 44.0943 3.92329 43.7369 3.92329H43.2435C43.0284 3.92329 43.0284 3.92329 43.0284 3.74932V2.05076C43.0284 1.77558 43.0284 1.77558 43.2182 1.77558H43.8286C44.1892 1.77558 44.4644 1.78507 44.6384 1.82619C45.0274 1.92424 45.1033 2.1678 45.2204 2.53787L45.2362 2.58848L45.2488 2.61062C45.2773 2.64542 45.3279 2.6644 45.388 2.6644C45.4481 2.6644 45.5272 2.64542 45.5652 2.58848L45.5778 2.5695L45.5652 2.44298C45.5209 1.94955 45.4798 1.52886 45.4355 1.39918L45.4165 1.34224L45.3596 1.35489C45.2647 1.37704 44.7396 1.37704 44.2272 1.37704H42.6298C42.3041 1.37704 42.0225 1.37071 41.6303 1.35173H41.6145L41.5987 1.35806C41.5291 1.39285 41.5164 1.4909 41.5164 1.52254C41.5101 1.59845 41.5323 1.65538 41.5765 1.68385L41.741 1.71232C42.1775 1.76293 42.2028 1.81986 42.2028 2.71817V5.77683C42.2028 6.69728 42.1491 6.7384 41.7347 6.7732L41.431 6.80166L41.4152 6.81748C41.3678 6.86492 41.3583 6.944 41.3678 7.0041C41.3773 7.06736 41.4057 7.1148 41.4469 7.13378L41.4627 7.14011H41.4785C41.9688 7.12429 42.2661 7.1148 42.633 7.1148H43.3985C44.1386 7.1148 44.8851 7.12429 45.6727 7.14011H45.7138L45.7328 7.10215C45.853 6.87125 46.0681 6.21017 46.1282 5.91285ZM39.0271 5.78V2.72133C39.0271 1.8167 39.0524 1.75976 39.4763 1.71548L39.6534 1.69967L39.6819 1.69018C39.723 1.66171 39.7451 1.60477 39.742 1.52886C39.7388 1.50039 39.7293 1.39918 39.6597 1.36438L39.6439 1.35806H39.6281C39.2169 1.37703 38.9354 1.38336 38.6286 1.38336C38.2617 1.38336 37.9643 1.37387 37.6038 1.35806H37.5879L37.5721 1.36438C37.5025 1.39918 37.4899 1.49723 37.4899 1.52886C37.4836 1.60161 37.5057 1.66171 37.55 1.69018L37.7398 1.71864C38.1731 1.76293 38.1984 1.81986 38.1984 2.72449V3.70187C38.1984 3.90747 38.1984 3.90747 37.8378 3.90747H35.4086C35.048 3.90747 35.048 3.90747 35.048 3.70187V2.72449C35.048 1.81986 35.0733 1.76293 35.5003 1.71864L35.6616 1.70283L35.6901 1.69334C35.7312 1.66487 35.7534 1.60478 35.7502 1.53203C35.7471 1.50356 35.7376 1.40234 35.6648 1.36755L35.649 1.36122H35.6332C35.2473 1.3802 34.9626 1.38652 34.6495 1.38652C34.4281 1.38652 34.2351 1.3802 34.0232 1.37387C33.8872 1.37071 33.7448 1.36438 33.5804 1.36122H33.5645L33.5519 1.36755C33.4823 1.40234 33.4697 1.50039 33.4665 1.53203C33.4602 1.60794 33.4823 1.66487 33.5266 1.69334L33.5424 1.70283L33.7796 1.72181C34.1529 1.75027 34.2193 1.82619 34.2193 2.72766V5.78632C34.2193 6.67198 34.2035 6.70677 33.7796 6.78268L33.6152 6.81115L33.5993 6.82697C33.5519 6.87441 33.5424 6.95349 33.5519 7.01359C33.5614 7.07685 33.5899 7.12429 33.631 7.14327L33.6468 7.1496H33.6626C33.7796 7.14643 33.8903 7.14327 34.001 7.14011C34.2035 7.13378 34.4091 7.12429 34.6463 7.12429C34.9658 7.12429 35.2378 7.13062 35.7249 7.1496H35.7407L35.7565 7.14327C35.8135 7.1148 35.8356 7.03889 35.8388 6.97879C35.8419 6.90604 35.8198 6.84594 35.7787 6.82064L35.5035 6.78585C35.0955 6.74156 35.0449 6.70044 35.0449 5.78949V4.59069C35.0449 4.38509 35.0449 4.38509 35.4054 4.38509H37.8347C38.1952 4.38509 38.1952 4.38509 38.1952 4.59069V5.78949C38.1952 6.69412 38.1858 6.7131 37.7334 6.78585L37.55 6.81431L37.5342 6.83013C37.4867 6.87758 37.4772 6.95665 37.4867 7.01675C37.4962 7.08001 37.5278 7.12746 37.5658 7.14643L37.5816 7.15276H37.5974C38.0055 7.13378 38.2996 7.12746 38.6223 7.12746C38.9575 7.12746 39.2517 7.13695 39.6471 7.15276H39.6629L39.6787 7.14643C39.7483 7.11164 39.761 7.01359 39.7641 6.98196C39.7704 6.90921 39.7483 6.84911 39.704 6.82064L39.4731 6.78585C39.0461 6.72575 39.0271 6.6783 39.0271 5.78ZM32.04 1.25051L32.0463 1.22521L32.0336 1.20307C32.002 1.13981 31.9071 1.13348 31.8786 1.13348C31.8565 1.13348 31.8249 1.13664 31.7996 1.14613L31.7774 1.15562L31.7648 1.1746C31.6541 1.36438 31.6098 1.3802 31.1575 1.3802H27.6465C27.2669 1.3802 27.0961 1.36122 27.0613 1.17144L27.0582 1.15246L27.0423 1.13664C27.0202 1.1145 26.9791 1.10185 26.9253 1.10185C26.9063 1.10185 26.8367 1.10501 26.7988 1.13032L26.7766 1.14613L26.7703 1.1746C26.7102 1.51305 26.5837 2.05076 26.4509 2.43033L26.4414 2.45563L26.454 2.48094C26.5046 2.58216 26.6786 2.63277 26.7735 2.56318L26.7861 2.55369L26.7925 2.53787C26.8779 2.34176 26.9601 2.15514 27.1594 1.97485C27.346 1.80405 27.7698 1.77874 28.1589 1.77874H28.627C28.8168 1.77874 28.8168 1.77874 28.8168 1.98434V5.78316C28.8168 6.70361 28.763 6.74473 28.3487 6.77952L28.0419 6.80483L28.0134 6.81431C27.9628 6.84594 27.9343 6.90921 27.9375 6.98512C27.9407 7.04205 27.9628 7.1148 28.0166 7.14011L28.0324 7.14643H28.0482C28.5669 7.13062 28.8832 7.12113 29.228 7.12113C29.5601 7.12113 29.8353 7.13062 30.3382 7.14643H30.3541L30.3699 7.14011C30.4268 7.11164 30.4489 7.03573 30.4521 6.97563C30.4553 6.90288 30.4363 6.84278 30.392 6.81748L30.0884 6.78268C29.6645 6.74473 29.6392 6.69096 29.6392 5.78632V1.97169C29.6392 1.88629 29.6392 1.80405 29.6519 1.78823C29.6677 1.77242 29.7594 1.77242 29.8195 1.77242H30.4236C30.8791 1.77242 31.1891 1.83884 31.3694 1.97169C31.4485 2.03179 31.5181 2.24687 31.556 2.54736L31.5592 2.56634L31.5718 2.58216C31.6035 2.62011 31.6604 2.64225 31.7268 2.64225C31.8059 2.64225 31.8755 2.60746 31.9008 2.55053L31.9103 2.53471L31.9071 2.51573C31.8913 2.27534 31.9482 1.58896 32.04 1.25051ZM26.2547 18.913C26.2547 21.5446 27.52 23.3982 29.1489 24.5211C30.6387 25.5206 32.3911 25.8875 34.2256 25.8875C35.532 25.8875 36.9996 25.5807 37.4456 25.4194C37.6702 25.3371 37.9137 25.258 38.1605 25.2169C38.4673 24.831 38.9955 23.4836 39.1378 22.424C39.0556 22.2816 38.7519 22.2405 38.6064 22.3417C38.1383 23.5437 36.9743 25.258 34.3458 25.258C31.0025 25.258 28.2886 22.8921 28.2886 18.6093C28.2886 14.3898 30.9392 12.4097 34.058 12.4097C37.0154 12.4097 37.9327 14.0008 38.2395 15.3862C38.3819 15.5095 38.6887 15.4874 38.7899 15.3451C38.6254 14.102 38.5242 12.8178 38.5052 12.3465C38.3218 12.3686 38.1794 12.3275 37.9359 12.2642C36.9775 11.9985 35.4276 11.774 34.3268 11.774C32.2076 11.774 30.3098 12.3433 28.82 13.5073C27.2732 14.7124 26.2547 16.6482 26.2547 18.913ZM20.9503 15.4716V1.26949C9.5412 0.168751 0.928223 1.26949 0.928223 1.26949C0.928223 1.26949 0.928223 15.4716 0.928223 15.4747C1.83602 25.1031 10.8539 26.2323 10.9393 26.2196C12.5524 25.9254 20.1121 24.4072 20.9503 15.4716ZM4.14188 19.0174C4.32534 19.1407 4.54042 19.1945 4.73653 19.2799C4.98009 19.9157 4.74286 20.5451 4.60685 20.2826C4.36646 19.8271 4.27156 19.4475 4.14188 19.0174ZM4.15453 12.0365L4.13872 12.0207C4.11974 12.0207 2.87033 12.8083 2.06059 12.4319C2.66474 12.0966 4.76184 10.765 5.33435 10.3886C5.60321 10.4455 5.71391 10.3506 5.79932 10.2905C5.58107 10.3032 4.85356 10.417 5.22048 9.7686C5.36282 10.3506 6.37815 9.81605 6.74507 9.73065C7.76357 9.49658 7.75724 10.5847 7.66868 11.0338C7.63705 11.2015 7.98182 11.3217 8.14946 11.2964C7.85846 12.0144 7.3587 11.3375 7.2986 11.6127C7.2733 11.7234 6.94118 11.8119 6.94118 12.0871C6.94434 12.4635 7.08984 12.2579 7.10565 12.5521C7.12147 12.8368 6.98546 12.6153 7.01709 12.9222C7.06454 13.4093 7.87111 12.8589 8.20323 12.9886C8.37087 13.055 8.48158 13.2037 8.6429 13.1752C8.69034 13.1372 8.6682 12.9506 8.66187 12.8874C8.64606 12.7324 8.35822 12.7134 8.22537 12.5046C8.10834 12.3212 8.35822 11.7676 8.49107 11.6032C8.68401 12.5173 9.5412 12.2295 9.66772 13.191C9.74996 13.463 9.37356 13.7635 9.67721 14.2064C9.45263 14.4246 9.18061 15.4652 9.65191 15.9555C9.57283 16.1769 9.46529 16.6862 9.88597 16.9867C9.74364 17.2872 9.77843 17.6572 9.89546 18.0336C9.63293 18.0336 9.6867 16.5628 8.11467 16.5154C8.07987 16.5059 8.07038 16.683 8.11467 16.7621C8.30445 17.0942 8.55433 17.0752 8.50056 17.8533C8.48158 18.119 8.32659 17.8059 8.24119 17.7332C8.05141 17.5655 7.90274 17.5434 7.8205 16.9962C7.18157 17.4959 7.24483 18.1032 7.28595 18.41C7.28595 18.41 7.14361 18.0273 6.9823 17.6319C6.97281 17.6098 7.63072 16.8222 7.7351 16.6324C9.06042 14.2475 6.87792 17.4042 6.87475 17.3947C6.75772 17.1227 6.65334 16.8886 6.58692 16.8127C6.60273 16.7811 6.96648 16.373 7.13096 16.0314C8.15579 13.8964 6.52049 16.7431 6.46356 16.6894C6.3402 16.5786 6.23898 16.4395 6.1599 16.4901C6.14093 16.819 6.06185 16.7748 6.08715 17.1069C5.91635 17.3346 5.54944 17.692 5.29323 17.8723C5.29323 17.8723 5.22997 17.2808 5.24578 17.2587C5.37547 17.1005 5.87839 16.5597 5.98277 16.3983C7.66235 13.7604 5.19517 17.0341 5.19201 17.0057C5.17303 16.9013 5.04018 16.7273 4.89468 16.5818C4.89468 16.5818 5.43873 15.8385 5.57474 15.5633C6.5964 13.4599 4.75235 16.4932 4.73337 16.4838C4.68909 16.4616 4.68592 16.4616 4.63215 16.4426C4.58154 16.4268 4.68909 15.8385 4.75867 15.4842C4.89785 14.7852 4.52461 15.3482 4.42339 16.4584C4.3285 16.4743 4.0976 16.4964 4.01219 16.5755C4.06913 16.8728 4.13872 16.6451 4.26208 16.9297C4.41074 17.2713 4.05648 17.828 4.36329 18.2392C4.48349 18.3974 4.48981 18.3721 4.46767 18.4733C4.27789 18.4607 4.16086 18.4575 4.04066 18.6188C3.8066 17.556 3.81292 17.0436 3.86986 15.965C3.89516 15.4747 4.05648 14.7314 3.98056 14.7156C3.91098 14.703 2.79758 17.5687 2.52872 18.1317C2.06059 17.9735 2.81973 15.4906 3.78762 14.2981C3.87935 13.9185 3.28153 14.684 2.92411 14.9876C2.59515 15.266 2.18079 15.6329 1.72847 15.5064C2.31047 14.8927 3.63895 13.7446 3.78762 13.4567C3.91098 13.21 2.87982 14.2222 1.78857 13.8458C2.50342 13.463 4.15137 12.6217 4.15453 12.0365ZM6.11878 17.4263C6.12195 17.6889 6.10297 17.8818 6.18204 18.1475C6.3054 18.5492 6.24214 18.4259 6.0745 18.2867C5.94165 18.138 5.81513 18.0147 5.75187 17.8407C5.73289 17.7205 5.83411 17.711 6.11878 17.4263ZM8.7536 10.9674C8.59545 10.6954 8.94338 10.436 8.94338 10.436C8.9339 11.1983 9.90812 10.6764 10.4174 10.9168C10.5407 10.9737 10.6261 11.0813 10.6767 11.1951C10.1295 10.8156 9.11735 11.5874 8.7536 10.9674ZM3.019 4.8722C2.14916 4.8722 2.16814 3.56586 3.019 3.56586C3.87302 3.56586 3.87302 4.8722 3.019 4.8722ZM3.019 7.47855C2.13018 7.47855 2.13018 6.17538 3.019 6.17538C3.87302 6.17538 3.87935 7.47855 3.019 7.47855ZM4.67011 4.66344H3.91098V3.91696H4.67011V4.66344ZM4.67011 7.26347H3.91098V6.51699H4.67011V7.26347ZM10.8001 8.54766C10.8001 8.54766 10.0062 8.11749 9.07307 8.05423C8.1716 7.99413 6.34969 8.71531 4.95162 8.62042V2.47778C4.95162 2.47778 6.5458 2.6897 7.20055 2.43666C9.42733 1.57631 10.7969 2.53787 10.7969 2.53787V8.54766H10.8001ZM12.3373 9.54719C12.3753 9.77809 12.1602 9.83819 12.1602 9.83819C12.4955 9.91726 12.6536 9.71799 12.7201 9.59147C12.8497 10.126 12.3089 10.1545 12.1412 10.1861C12.1412 10.1861 12.4132 10.2652 12.4291 10.4423C12.4639 10.8946 12.7549 10.8567 12.8181 10.8187C12.8086 10.8725 12.7169 11.1445 12.3911 10.901C12.3373 10.9547 12.4797 11.0401 12.5081 11.2647C12.5461 11.5494 12.5366 11.8119 12.8624 11.9827C12.6631 12.1409 12.4259 11.7265 12.4038 11.7771C12.3816 11.8341 12.6821 11.9859 12.35 12.7703C12.1982 12.6818 12.2836 12.7007 12.1064 12.492C11.9704 12.3781 11.9198 12.3528 12.0305 12.5394C12.2266 12.783 12.2741 13.346 12.2045 13.4947C12.0432 13.4251 12.0843 13.2954 11.8945 13.1183C11.8755 13.1942 11.9546 13.5643 12.1507 13.7414C12.4923 14.0482 12.6125 14.4214 12.6188 14.4942C12.6473 14.7725 12.5587 15.1426 12.524 15.5C12.3595 15.4779 12.2203 15.0129 12.1823 15.0382C12.1349 15.0699 12.2013 15.4937 12.5113 15.7816C12.66 16.2181 12.5999 16.4521 12.5619 16.4679C12.5081 16.4901 12.3437 16.0219 12.2519 16.1042C12.6916 17.2207 12.3848 17.6066 12.2677 17.9514C12.176 17.6003 12.1317 17.3346 12.0179 16.9361C11.7775 17.1227 11.7205 17.401 11.4295 17.6572C11.4295 17.2018 11.167 16.1042 10.9582 15.848C10.9488 15.8353 10.5818 16.8317 10.4142 17.2745C10.196 17.8502 10.1643 18.5682 10.4142 19.1281C9.87332 18.3563 9.81322 16.9234 10.2814 16.7305C10.3225 16.6293 10.2529 16.2908 10.1485 16.3319C10.12 16.4964 10.139 16.6387 10.003 16.8001C9.64558 16.6957 9.8069 16.256 9.83853 16.1137C10.3035 15.557 10.0125 15.4273 9.99035 15.4431C9.93975 15.5696 9.89546 15.7278 9.75313 15.7847C9.4558 15.2723 9.64558 14.4657 10.2118 13.8647C10.2371 13.6402 9.95872 14.0324 9.77843 14.0197C9.73098 13.5864 9.88914 12.8368 10.6894 12.8083C10.5376 12.764 10.4553 12.7355 10.4174 12.609C10.6578 12.5742 11.4169 12.5141 11.2935 11.9163C11.2208 11.9891 11.1986 12.0966 11.0025 12.2168C10.8697 12.299 10.7242 12.3054 10.6483 12.1883C10.9994 12.0713 10.8855 11.6443 10.4237 11.7708C10.2845 11.8088 10.0758 11.6633 10.0663 11.4988C10.1675 11.6 10.3762 11.5241 10.4964 11.4482C11.012 11.1129 11.3283 11.6 11.3979 11.7044C11.4201 11.7044 11.6288 11.2173 10.895 11.0876C10.8349 10.9168 10.6672 10.6131 10.1675 10.6511C10.003 10.0723 9.50641 10.3569 9.52222 10.6195C8.99399 10.2304 9.53171 9.74013 9.74364 9.66422C9.8923 9.67687 9.85751 10.145 10.1169 10.0659C10.1801 10.0469 9.91444 9.7433 10.0157 9.60728C10.2529 9.47127 10.2497 9.78125 10.3668 9.66738C10.4237 9.46495 10.6578 9.35108 10.8507 9.32894C11.4011 9.2467 11.8218 9.83819 12.3373 9.54719ZM17.1926 8.64256C16.0223 8.72163 13.5899 8.05423 12.9731 8.05423C11.6984 8.05423 11.0816 8.55083 11.0816 8.55083C11.0816 8.55083 11.0848 2.76245 11.0816 2.55369C11.0816 2.55369 12.758 1.76925 13.9758 2.21841C15.4688 2.76878 17.1926 2.52522 17.1926 2.52522V8.64256ZM18.7362 6.27976C19.3814 6.18487 19.4795 6.94716 19.4795 6.94716C19.3213 6.82064 19.0019 6.76371 18.7836 6.90288C18.0625 7.36785 17.4109 7.37101 17.4109 7.37101V6.20701C17.4109 6.20701 17.5469 6.45373 18.7362 6.27976ZM19.4985 4.68558C19.4921 4.65079 19.4858 4.59702 19.4763 4.52427C19.4605 4.40724 19.1252 4.34081 18.8912 4.44519C18.5622 4.59069 17.7335 5.06199 17.433 4.97342V3.80942C18.1763 4.13205 18.4673 3.84105 18.7077 3.84105C19.4415 3.84105 19.4795 4.52743 19.4795 4.52743C19.489 4.59702 19.4953 4.65079 19.4985 4.68558ZM18.6666 16.7494C18.4483 16.8064 17.8758 17.0341 17.7367 17.2619C17.8094 16.0219 17.4109 14.8042 17.2812 14.51C17.0313 13.9375 17.3919 15.8448 17.4172 16.2845C17.4172 16.3035 15.358 13.637 16.6011 15.6898C16.9238 16.2212 17.4267 16.5692 17.4267 16.5786C17.4362 16.9487 17.4109 17.2207 17.3413 17.42C17.2148 17.5212 14.5388 13.8584 16.016 16.3952C16.1994 16.7083 17.2717 17.6604 17.2654 17.6825C17.1958 17.828 17.0756 18.0368 16.9111 18.1918C16.8826 18.1633 16.2943 17.73 16.288 17.7015C16.2437 17.4168 16.2405 17.1512 15.8926 17.3504C15.8926 17.3504 14.5736 15.8163 15.1841 16.8918C15.4498 17.3631 15.6269 17.4137 15.6965 17.4991C15.6965 17.4991 15.4909 17.7774 15.4276 18.0716C15.4023 18.1886 14.2826 16.8317 14.7223 17.6857C14.8614 17.9577 15.3739 18.2582 15.3675 18.2772C15.3138 18.4543 15.2632 18.6283 15.2062 18.739C15.1366 18.8813 14.1561 19.6626 14.1561 19.6626C14.1561 19.6626 14.349 19.0427 14.7634 18.739C15.0006 18.565 15.0006 18.603 15.1588 18.5049C15.1556 18.4132 15.067 18.2645 14.9532 18.2234C14.8108 18.1728 14.3459 18.2582 14.3459 18.2582C14.3902 18.0273 14.1846 17.5244 14.1877 16.974C14.0138 16.9898 13.7069 17.2619 13.631 17.4137C13.5772 18.3246 13.378 18.0526 13.1945 18.7105C12.9921 18.4354 13.2072 18.04 13.0111 17.7838C12.739 17.4295 12.6979 17.1891 12.6568 16.7558C12.7201 16.721 12.9984 16.4142 12.7454 15.7689C12.7042 14.7567 13.1566 14.3708 12.3468 13.6655C12.4132 13.6433 12.4639 13.1372 12.4639 13.1372C13.0585 13.4536 12.9415 12.7703 13.1724 12.6343C13.5393 12.4192 13.4729 12.1978 13.3084 11.9226C14.3617 12.2231 13.2609 12.9411 13.7386 12.957C14.0833 12.9664 14.3142 12.881 14.4661 12.647C14.6274 12.4003 14.4376 12.2516 14.8836 11.853C14.9279 11.8151 15.0481 11.5462 14.6938 11.4735C14.6147 11.4577 14.6938 11.154 14.6938 11.154C14.4091 11.3944 14.3206 11.7329 13.8651 11.5178C13.631 11.4071 13.4792 11.5146 13.3843 11.562C13.3843 11.562 13.3369 11.3723 13.5298 11.3058C14.0296 11.1382 14.1529 10.9389 14.1245 10.8314C14.058 10.572 14.0359 10.8314 14.0517 10.5594C14.058 10.4518 14.1846 10.3032 14.2889 10.1766C14.6274 9.7686 14.8678 9.92043 14.9532 9.95838C15.1493 9.80656 15.1841 9.81605 15.3675 9.7433C15.6807 9.61994 16.3607 9.82554 16.7403 9.9995C16.9238 10.0817 17.1452 10.1324 17.3571 10.0849C17.3539 10.1956 17.278 10.2557 17.1989 10.2779C17.0819 10.3158 16.9396 10.2779 16.9491 10.3633C16.9554 10.4139 17.1167 10.4234 17.2179 10.4518C17.7809 10.6068 18.5084 11.1097 18.0308 11.0022C17.9739 10.9895 18.3756 11.3027 18.6792 11.7076L19.7515 12.7482C19.7009 12.8083 19.3277 12.7545 18.1352 11.638C17.9644 11.7898 19.5839 13.0076 20.2513 14.3012C20.1943 14.3424 19.3625 14.0387 19.062 13.7287C18.6002 13.2511 18.0688 12.0333 17.8505 12.2136C17.8252 12.2231 18.7299 13.6338 19.1758 14.4689C19.4004 14.8927 19.587 15.4969 19.6029 15.9555C19.6756 18.2076 19.334 18.0336 19.3372 18.0336C18.8089 16.2592 18.5622 14.2 17.7936 13.248C17.4899 12.8652 18.6191 14.9054 18.6666 16.7494ZM16.3354 18.7738C16.0982 18.9826 15.9432 19.0553 15.9938 18.9541C16.0508 18.8371 16.095 18.7422 16.1267 18.6536C16.1393 18.622 16.3354 18.7738 16.3354 18.7738ZM16.1804 18.4923C16.2342 18.3025 16.2342 18.1728 16.2564 18.0052C16.2658 17.9324 16.269 17.9419 16.2722 17.8818C16.2722 17.8628 16.7877 18.3088 16.8162 18.3278C16.6865 18.4891 16.5758 18.5492 16.4525 18.6631C16.3671 18.5903 16.1741 18.5113 16.1804 18.4923ZM17.8505 19.0648C17.1357 19.7702 16.0634 19.514 15.2189 19.8935C14.4534 20.1719 13.8999 20.8804 13.0965 21.0607C12.8592 21.1366 12.8213 21.2536 12.9731 21.2505C13.0617 21.2473 13.5519 21.7597 14.3332 21.3643C14.5958 21.2315 15.4055 20.7792 15.5447 20.7539C15.105 21.1714 14.8836 21.5478 14.4914 21.766C14.251 21.9021 13.2704 22.25 12.2962 22.0602C11.8629 21.9748 11.5308 22.3765 11.6415 22.367C11.8724 22.3038 12.1317 22.3354 12.2899 22.541C12.5746 22.7624 12.9826 23.0407 13.3369 22.6264C13.4539 22.4904 14.0138 22.1994 14.542 22.7339C13.9821 22.7055 14.0359 23.7113 12.9763 23.5943C12.5841 23.5911 11.7142 22.6928 11.4675 22.9712C11.0278 23.4646 12.4101 23.9327 11.8123 24.5527C11.2714 25.1125 10.6261 24.1067 10.6261 24.1067C10.9646 24.249 11.5845 24.3408 11.3125 23.7904C11.205 23.5721 10.9962 23.376 10.9962 22.9743C10.9488 22.7751 9.71201 24.5685 8.89278 23.7588C8.57015 23.4393 7.91856 22.7434 7.33023 22.4777C8.89278 22.3449 9.13 22.9712 9.20592 23.0692C9.70568 23.7429 10.1675 23.0597 10.275 22.9395C10.4363 22.7529 10.6672 22.4999 10.585 22.4619C9.9777 22.1741 9.28816 22.114 8.76942 22.3512C9.87648 20.8298 10.7368 22.2531 10.7368 22.2531C10.857 22.3291 10.7052 21.3517 9.61079 21.2979C8.92757 21.2631 8.32659 21.8799 7.85213 21.8799C7.46941 21.8799 6.3054 21.0955 6.03338 20.3964C6.71027 20.9025 7.57379 21.1935 8.1115 20.8709C9.12368 20.2668 10.3952 21.1777 10.4553 21.067C10.1738 20.8456 9.52855 19.9852 7.79204 20.4755C7.11831 20.8614 6.83363 20.1877 6.42244 20.1782C7.12463 19.5551 7.6149 19.8714 7.85846 19.8904C7.91539 19.8904 7.5643 19.5994 7.31758 19.574C5.40077 19.3748 4.183 18.8465 4.183 18.8465C4.17351 18.8465 4.34431 18.4607 5.16671 18.739C5.16671 18.739 4.42655 18.2867 4.43288 17.7047C4.45818 17.3473 4.62899 16.9614 4.35697 16.664C5.47036 16.6198 4.6796 18.1697 5.46087 18.5714C5.47668 18.5777 5.22997 18.2013 5.5779 17.9071C5.73922 18.3626 6.13776 18.5998 6.41611 18.6726C6.48253 18.6378 6.56161 18.4954 6.56161 18.4986C6.26745 18.0115 6.22949 17.4453 6.30857 16.7969L6.32122 16.7906C6.38448 16.7937 6.49202 17.0151 6.56794 17.1765C6.72925 17.5244 6.72609 18.0273 7.04872 18.4417C7.22901 18.6694 7.33972 18.8972 7.50104 19.0079C7.57062 18.8465 7.52002 18.5682 7.50736 18.4954C7.46941 18.2329 7.30493 17.7711 7.75724 17.3631C7.96917 17.9704 8.25384 17.7964 8.29496 18.0874C8.34873 18.4954 8.32975 18.4322 8.28863 18.7453C8.31077 19.1787 8.70299 19.2989 9.05093 19.5772C9.83853 20.0042 10.3604 20.2383 10.702 20.7855C10.8697 19.8587 8.37087 19.6753 8.69351 17.8881C8.65871 17.1765 8.78207 17.1164 8.27598 16.6799C9.27867 16.7083 9.82588 18.3531 9.87965 18.6536C9.98087 19.204 10.3161 19.2324 10.7748 19.9536C10.8412 19.9789 9.9524 18.0368 11.012 16.3762C11.012 16.3762 11.3694 17.2397 11.2018 17.8059C11.1006 18.1475 11.1955 18.5239 11.2145 18.739C11.2334 18.9573 11.1702 17.9514 11.9261 17.4327C11.9736 17.8122 12.3373 18.4037 11.9926 19.0332C11.5719 19.8018 11.5402 19.5266 11.5339 20.4692C11.5719 20.4534 11.6794 19.8176 11.9704 19.457C12.5809 18.6947 12.1444 18.2867 12.739 17.6256C12.7865 17.9546 12.8719 17.8249 12.9067 18.119C12.9858 18.7801 12.2962 19.5013 12.4512 19.4792C12.6252 19.4539 12.9067 19.302 13.0016 18.8023C13.0016 18.8023 13.2546 19.2577 13.0237 19.4127C12.603 19.6879 12.5145 19.9852 12.5809 20.3205C12.9193 19.9188 13.378 19.4728 13.2989 18.8972C13.3369 18.5524 13.7133 18.41 13.786 17.6066C13.7987 17.4738 13.9315 17.3125 14.0644 17.2397C14.0074 17.692 14.3585 18.1602 13.9568 18.7105C14.0485 18.758 14.3838 18.2804 14.8773 18.4543C13.8872 18.6315 14.1751 19.7069 13.4191 20.2003C13.1914 20.349 13.2293 20.5166 13.1597 20.5356C13.8366 20.4977 14.3585 19.6911 14.4503 19.6278C15.1303 19.166 15.279 19.0964 15.551 18.35C15.6585 18.0653 15.5795 17.9419 15.9559 17.5592C16.1203 17.9356 15.8799 18.72 15.823 18.8877C15.6997 19.2483 15.2726 19.5582 15.3644 19.5582C17.1895 18.7517 17.1673 18.2108 17.6038 17.6351C17.7335 17.4137 18.3851 17.031 18.6255 16.9962C18.5654 17.1164 18.3123 17.3188 18.3028 17.537C18.2807 17.9388 18.151 18.1855 17.9454 18.5113C18.0593 18.6536 18.2775 18.2456 18.499 18.4512C18.2111 18.5461 18.0783 18.8719 17.8505 19.0648ZM18.1542 18.9604C18.0466 19.4918 17.8632 19.9852 17.5437 20.4439C17.3191 20.7697 17.2274 20.1371 17.4204 19.5266C17.6955 19.4159 17.9707 19.2008 18.1542 18.9604ZM16.7656 5.47002C16.7245 5.4542 16.6359 5.43839 16.579 5.43839C16.522 5.43839 16.4936 5.51747 16.5632 5.53644C16.6075 5.5491 16.6897 5.56175 16.7688 5.56807C16.8225 5.57124 16.8067 5.48583 16.7656 5.47002ZM16.56 5.72623C16.6043 5.73888 16.6834 5.75153 16.7656 5.75786C16.8162 5.76418 16.8004 5.67878 16.7593 5.66296C16.7182 5.64715 16.6296 5.63133 16.5758 5.63133C16.5157 5.62817 16.4904 5.70408 16.56 5.72623ZM16.56 6.88706C16.5189 6.83962 16.4113 6.75105 16.3133 6.68147C16.2564 6.72891 16.1425 6.81115 16.0697 6.84911C16.016 6.78901 15.9432 6.70361 15.8325 6.61504C15.7661 6.65933 15.5731 6.83646 15.4941 6.88074C15.6111 6.8839 15.7851 6.92186 15.7914 7.03256C15.7945 7.12113 15.7851 7.6715 15.7914 7.77272C15.8641 7.78853 15.9464 7.78221 16.0508 7.77588C16.0571 7.69681 16.0539 7.06419 16.0571 6.98828C16.0919 6.9693 16.133 6.95032 16.152 6.93135C16.1931 6.95981 16.3133 7.10215 16.386 7.14011C16.4335 7.10215 16.5632 6.99145 16.6169 6.93767C16.6739 6.87758 16.6106 6.83962 16.56 6.88706ZM16.2374 5.96345C16.3038 5.84326 16.4019 5.64715 16.3955 5.49849C16.386 5.31503 16.2753 5.04617 16.0065 4.95444C15.668 5.07464 15.4561 5.3435 15.4466 5.6598C15.4403 5.84642 15.5984 6.22599 15.9242 6.22915C16.0254 6.13742 16.133 6.03304 16.2374 5.96345ZM16.0318 6.0362C15.9685 6.00457 15.7408 5.82744 15.687 5.69143C15.6174 5.50798 15.6174 5.30554 15.8135 5.18851C15.9654 5.24544 16.1425 5.39411 16.1583 5.53012C16.1773 5.71041 16.1267 5.91917 16.0318 6.0362ZM16.0223 4.62232L16.2658 4.35663C16.2658 4.35663 16.1583 4.27122 16.0919 4.19215C16.0919 4.13521 16.0919 3.60066 16.114 3.57219C15.9306 3.40771 15.7977 3.38873 15.7186 3.39822C15.57 3.42036 15.4181 3.61015 15.3707 3.67657C15.3359 3.72718 15.3454 3.79044 15.3707 3.81258C15.3992 3.83789 15.4371 3.86003 15.4782 3.88533C15.4719 3.88217 15.4656 3.87584 15.4593 3.87268C15.3897 3.9391 15.2885 4.12572 15.2916 4.25541C15.2916 4.38509 15.4087 4.57171 15.4877 4.6413C15.5731 4.57488 15.7028 4.46417 15.8894 4.42621C15.9084 4.51794 15.9527 4.57171 16.0223 4.62232ZM15.8768 4.00553C15.7566 3.96125 15.5194 3.85054 15.434 3.78095C15.4118 3.76197 15.4087 3.75248 15.4371 3.7082C15.4909 3.62596 15.5542 3.55638 15.5984 3.55954C15.6364 3.55954 15.8768 3.68922 15.8705 3.75565C15.8736 3.80309 15.8768 3.90431 15.8768 4.00553ZM15.8768 4.36928C15.8135 4.37244 15.7598 4.38826 15.6807 4.42621C15.6143 4.37244 15.4434 4.16684 15.57 3.93594C15.551 3.92645 15.5352 3.91696 15.5162 3.90431C15.6332 3.97074 15.7661 4.02451 15.8736 4.0593C15.8736 4.15103 15.8705 4.23327 15.8705 4.2649C15.8705 4.30602 15.8736 4.33765 15.8768 4.36928ZM15.1746 3.2717C15.1177 3.2717 14.7318 3.28119 14.7223 3.25905C14.6938 3.17681 14.6875 3.07559 14.7539 2.93642C14.7855 2.86683 14.7223 2.83836 14.697 2.90795C14.6717 2.97754 14.4787 3.24323 14.2794 3.32864C14.1751 3.36975 14.406 3.46465 14.3902 3.46148C14.3902 3.71769 14.4249 4.10358 14.4819 4.25857C14.5167 4.3503 14.6211 4.49896 14.6938 4.45468C14.7413 4.42621 14.8425 4.22378 14.8741 4.19847C14.931 4.15419 14.8741 4.07512 14.8298 4.12256C14.7792 4.16684 14.7349 4.09726 14.7191 4.04981C14.7033 4.00553 14.6559 3.43934 14.678 3.42669C14.678 3.42669 15.1335 3.37292 15.1809 3.37292C15.2062 3.36976 15.2094 3.2717 15.1746 3.2717ZM13.922 4.31234L14.1118 4.06879C13.9758 4.04665 13.9189 4.02134 13.824 3.91064L13.8271 3.30333L13.6342 3.11039L13.5678 3.11671L13.2641 3.38241C13.2325 3.42985 13.3147 3.42985 13.3558 3.37292L13.5741 3.49944L13.5836 4.08777C13.5994 4.15735 13.6595 4.22694 13.7449 4.31234H13.922ZM13.7575 2.96172L13.8619 2.86999V2.72133L13.7196 2.58216L13.5772 2.70235L13.5804 2.87316L13.669 2.96172H13.7575ZM13.2736 2.7751C13.1914 2.76561 12.9257 2.78775 12.8276 2.80357C12.7296 2.81938 12.7296 2.86683 12.8118 2.87632C12.8909 2.88581 12.9067 2.90162 12.951 3.00917C12.9889 3.11671 12.796 3.61015 12.7485 3.72718C12.6916 3.64178 12.486 3.19262 12.486 3.12936C12.486 3.08508 12.5777 3.0408 12.6157 3.03131C12.6916 3.00917 12.6884 2.9554 12.6315 2.94591C12.4702 2.92377 11.9072 2.87316 11.8059 2.8605C11.7332 2.85418 11.7016 2.93642 11.787 2.93642C11.8787 2.93958 11.9704 2.91111 12.0716 3.05661C12.1855 3.22109 12.5429 3.98971 12.6283 4.31234C12.6695 4.24276 13.0269 3.20844 13.049 3.09773C13.0743 2.99019 13.1502 2.88581 13.2546 2.85418C13.3653 2.82887 13.3558 2.78143 13.2736 2.7751ZM11.5782 5.28024C11.5845 5.71041 11.7553 5.74837 11.9514 5.85907C12.1381 5.96345 12.448 5.94448 12.6821 5.88122C12.7707 5.85591 12.8181 5.84959 12.815 5.9255C12.815 5.97294 12.8814 5.96345 12.8814 5.92866C12.8814 5.89387 12.8845 5.53328 12.8845 5.49216C12.8845 5.44788 12.8181 5.4542 12.8181 5.49216C12.8181 5.55226 12.8181 5.57124 12.758 5.65664C12.5967 5.89387 12.195 5.88438 11.9799 5.59338C11.9072 5.49532 11.8376 5.36248 11.923 5.33717C12.0084 5.31187 12.2677 5.36564 12.4386 5.37829C12.5398 5.38462 12.777 5.40992 12.8086 5.42574C12.8339 5.44471 12.8751 5.47002 12.8751 5.41941C12.8782 5.3688 12.8782 5.20116 12.8782 5.15055C12.8782 5.09994 12.8403 5.12525 12.8118 5.14106C12.7833 5.16004 12.5303 5.20432 12.4291 5.22014C12.3278 5.23912 12.0147 5.26442 11.9325 5.23595C11.8471 5.20749 11.8755 5.03984 11.9514 4.94179C12.1697 4.65395 12.6094 4.67293 12.7707 4.91332C12.8244 4.99556 12.8244 5.0177 12.8244 5.0778C12.8244 5.11576 12.8877 5.11892 12.8877 5.0778C12.8909 5.03668 12.894 4.60018 12.894 4.56539C12.894 4.53059 12.8308 4.51794 12.8308 4.56539C12.8308 4.59702 12.7612 4.616 12.6916 4.59702C12.5556 4.55274 12.157 4.616 11.9799 4.71405C11.8186 4.80894 11.575 5.0177 11.5782 5.28024ZM11.6541 6.04253C11.6604 6.16589 11.7047 7.21918 11.6921 7.36468C11.6826 7.44692 11.7965 7.53549 11.8977 7.60508C11.9483 7.54498 12.0558 7.38683 12.1444 7.3204C12.1982 7.27612 12.1602 7.24765 12.1191 7.26347C12.04 7.30142 11.9578 7.27295 11.9483 7.17806C11.942 7.08634 11.942 6.17854 11.9483 6.04886C11.8882 6.05202 11.7142 6.04886 11.6541 6.04253ZM12.524 6.90604C12.4544 6.97247 12.3278 7.14327 12.331 7.26979C12.3342 7.39948 12.3943 7.52284 12.4702 7.59242C12.5967 7.50386 12.6789 7.3805 12.8909 7.29826C12.9162 7.39632 12.9858 7.41213 13.0712 7.47539C13.1218 7.42162 13.3021 7.20021 13.34 7.15909C13.3811 7.12113 13.3558 7.08317 13.2989 7.12113C13.242 7.15909 13.204 7.13694 13.1091 7.03256C13.1123 6.97563 13.1028 6.52331 13.1249 6.49801C13.0395 6.40628 12.9573 6.2766 12.8561 6.28609C12.7074 6.29874 12.5176 6.55811 12.4702 6.62453C12.4322 6.67198 12.4733 6.8586 12.4987 6.8839C12.5113 6.89655 12.5145 6.89655 12.524 6.90604ZM12.6283 6.97879C12.7106 7.02624 12.7517 6.99777 12.8814 6.98196C12.8814 7.0642 12.8782 7.13695 12.8782 7.1749C12.8213 7.21602 12.7517 7.25081 12.6695 7.29193C12.6094 7.24132 12.5145 7.19704 12.6283 6.97879ZM12.5619 6.60555C12.6157 6.52331 12.6505 6.5075 12.6948 6.5075C12.7327 6.51066 12.8845 6.61504 12.8782 6.68463C12.8845 6.72891 12.8877 6.8238 12.8877 6.92186C12.7738 6.93451 12.6948 6.94716 12.5682 6.84278C12.5398 6.82064 12.5334 6.64984 12.5619 6.60555ZM13.4729 6.43791C13.378 6.48536 13.6026 6.57392 13.5867 6.57076C13.5836 6.82697 13.533 7.24449 13.6215 7.37417C13.6753 7.45641 13.7987 7.50702 13.8809 7.47539C13.96 7.44376 14.0612 7.28561 14.0928 7.2603C14.1529 7.21602 14.1023 7.16858 14.0517 7.21602C14.0043 7.2603 13.8714 7.22867 13.8524 7.18439C13.8398 7.13695 13.8208 6.58025 13.8461 6.5676C13.8461 6.5676 14.0043 6.56443 14.0485 6.56443C14.0833 6.56443 14.0833 6.46322 14.0517 6.46322C13.9948 6.46322 13.8651 6.45056 13.8588 6.42842C13.8398 6.37465 13.8619 6.20701 13.8967 6.13742C13.9315 6.06783 13.8651 6.0362 13.8398 6.10579C13.8082 6.1817 13.6437 6.35567 13.4729 6.43791ZM13.5203 5.28024C13.5298 5.52063 13.4033 5.77367 13.2673 5.8907C13.5045 5.83061 13.533 5.68827 13.6627 5.52379C13.7354 5.62817 13.8651 5.75786 13.9631 5.81163C14.0327 5.76735 14.2257 5.5491 14.2668 5.50481C14.1276 5.46686 13.8588 5.32452 13.7923 5.17586C13.7386 5.06515 13.7512 5.01138 13.805 4.92281C13.8524 4.98607 14.1782 5.13474 14.3269 4.88486C14.1656 4.82476 14.0201 4.72038 13.9726 4.63497C13.9283 4.66977 13.786 4.82792 13.7038 4.87537C13.6848 4.78996 13.5519 4.69507 13.4444 4.67609C13.4096 4.71405 13.1566 4.907 13.0427 4.96077C13.0079 4.97658 13.0206 5.05566 13.0712 5.03668C13.1186 5.0177 13.1945 4.95761 13.2863 4.91332C13.3906 4.95761 13.5077 5.06199 13.5203 5.28024ZM14.6495 5.32136C14.678 5.17586 14.7824 5.11576 14.8267 5.07148C14.8931 5.14423 14.9595 5.22963 15.0607 5.22963C15.1588 5.22963 15.26 5.18534 15.2916 5.14423C15.2094 5.0778 15.0259 4.88486 14.9911 4.85006C14.8994 4.90067 14.4945 5.1126 14.4597 5.35615C14.4091 5.71357 14.523 5.78632 14.6812 5.98243C14.7697 6.09314 14.9184 6.09947 14.9848 6.08049C15.0576 6.02988 15.3233 5.78 15.3517 5.74837C15.377 5.71674 15.3391 5.68827 15.3074 5.7199C15.2758 5.75153 15.2885 5.76418 15.2442 5.77051C15.1999 5.77683 15.0196 5.80847 14.9152 5.75469C14.7824 5.67878 14.6116 5.51747 14.6495 5.32136ZM14.4503 6.46322C14.3902 6.52331 14.2858 6.5929 14.1877 6.70361C14.27 6.70993 14.3364 6.72575 14.3743 6.80483C14.4155 6.88074 14.3807 7.20653 14.387 7.33305C14.3933 7.45325 14.4661 7.48172 14.5641 7.57977C14.659 7.55447 14.9279 7.44376 15.0196 7.3805C15.0101 7.48172 15.1366 7.59242 15.2125 7.61457C15.2632 7.56079 15.3169 7.52916 15.3897 7.46274C15.3169 7.41529 15.3264 7.40897 15.3011 7.31407C15.279 7.22235 15.3074 6.87441 15.3074 6.72575C15.2505 6.64035 15.1588 6.53597 15.0607 6.46638C14.9943 6.52648 14.9026 6.60872 14.795 6.72259C14.8741 6.7131 15.0291 6.74473 15.0386 6.81115C15.0449 6.89655 15.0576 7.08634 15.0386 7.23184C15.0196 7.3805 14.6242 7.31091 14.6179 7.21286C14.6084 7.11164 14.6369 6.81748 14.64 6.6783C14.5894 6.58657 14.5546 6.53913 14.4503 6.46322ZM11.8218 10.028V10.0122C11.594 9.98053 11.4137 9.81921 11.2018 9.74013C10.9108 9.62943 10.604 9.854 10.604 9.8888C10.604 9.96787 10.6862 10.0058 10.9203 9.86033C10.7368 10.0723 10.9456 10.2462 10.9456 10.2462C10.8697 10.2336 10.759 10.2083 10.6894 10.1703C10.6767 10.2462 10.7811 10.2747 10.8317 10.3095C11.2239 10.4676 11.4802 10.0944 11.8218 10.028ZM11.1638 10.2241C11.1638 10.2241 11.2682 10.1134 11.2682 10.0311C11.2682 9.92359 11.167 9.84451 11.167 9.84451C11.2556 9.86982 11.4643 9.98685 11.5371 10.0375L11.1638 10.2241ZM9.03195 7.27612L9.14266 7.15276C9.01614 7.13062 9.07623 7.13062 9.00981 7.07052L9.00665 6.55811L8.84217 6.31772L8.77891 6.32721L8.5227 6.5676C8.45628 6.62769 8.51637 6.65616 8.59229 6.58974L8.76309 6.6783L8.76625 7.21918C8.77891 7.28561 8.839 7.30142 8.92124 7.38683L9.03195 7.27612ZM9.08889 5.49532C9.17429 5.74204 9.37989 5.81796 9.53171 5.83061C9.57599 5.7452 9.6614 5.61868 9.70568 5.55858C9.77527 5.46686 9.70568 5.41308 9.65507 5.51746C9.61711 5.59654 9.42101 5.51114 9.35142 5.44155C9.25653 5.35299 9.19643 5.11892 9.27234 5.03668C9.34826 4.95444 9.45896 4.9924 9.6013 4.98607C9.69619 4.98291 9.71517 4.89434 9.73098 4.85006C9.6867 4.82792 9.61712 4.78996 9.52855 4.73619C9.43682 4.79629 9.29448 4.91649 9.23439 4.96709C9.15847 5.03352 9.00348 5.25809 9.08889 5.49532ZM9.45896 6.84594C9.36723 6.94084 9.29765 7.04522 9.29765 7.17806C9.30081 7.30459 9.34509 7.43111 9.47161 7.48804C9.58548 7.40264 9.73098 7.30142 9.87332 7.27612C9.94291 7.35836 10.0473 7.41529 10.1137 7.4659C10.158 7.41213 10.2972 7.29826 10.3383 7.26347C10.3762 7.22551 10.3383 7.17174 10.3003 7.22235C10.2719 7.26663 10.1706 7.235 10.1422 7.18755C10.1422 7.13378 10.0916 6.5676 10.1137 6.53913C10.0315 6.4474 9.88914 6.2418 9.79424 6.25129C9.65507 6.26394 9.44947 6.46322 9.40519 6.52648C9.3704 6.57392 9.41468 6.80799 9.44315 6.83013C9.44947 6.83962 9.45264 6.83962 9.45896 6.84594ZM9.82271 6.89655C9.71833 6.89972 9.62977 6.86809 9.5159 6.76687C9.49376 6.74789 9.47478 6.61821 9.50008 6.57709C9.55069 6.49801 9.55069 6.47271 9.59497 6.47271C9.62977 6.47271 9.83853 6.59923 9.82904 6.66881C9.8322 6.71626 9.82904 6.80799 9.82271 6.89655ZM9.54436 6.91553C9.63926 6.97879 9.69619 6.97247 9.81639 6.95982C9.81006 7.02624 9.8069 7.08634 9.8069 7.11164C9.8069 7.14011 9.81955 7.16225 9.82588 7.18755C9.76261 7.2097 9.68354 7.22235 9.62344 7.25398C9.56967 7.20653 9.36407 7.06736 9.54436 6.91553ZM10.332 5.86224L10.4458 5.73888C10.3161 5.71357 10.3161 5.72306 10.2497 5.66296L10.2561 5.07148L10.1453 4.907L10.0852 4.91332L9.82904 5.15055C9.75945 5.21381 9.82271 5.24228 9.89863 5.17269L10.0315 5.25493L10.0378 5.81163C10.0505 5.87805 10.1106 5.90019 10.1928 5.9856L10.332 5.86224ZM10.1327 3.79044C10.0789 3.78728 9.99984 3.88533 10.3098 3.91696C10.3573 3.92329 10.4205 3.80942 10.1327 3.79044ZM10.1359 3.60698C10.0852 3.60382 10.0062 3.74616 10.313 3.73351C10.3604 3.73034 10.3984 3.61964 10.1359 3.60698ZM10.196 4.53692L10.0631 4.40091L9.93026 4.5211L9.93342 4.68558L10.0157 4.76782H10.0979L10.196 4.67926V4.53692ZM9.92393 3.26854C9.83537 3.20528 9.73731 3.05661 9.51906 3.04712C9.30081 3.03763 9.05409 3.23691 8.97502 3.36027C8.86747 3.52474 9.00032 3.66708 9.13633 3.77463C9.04776 3.85054 8.92441 3.96757 8.81054 4.07511C8.85482 4.12572 9.1047 4.24276 9.24704 4.23959C9.45896 4.23327 9.65507 4.12572 9.77527 4.02767C9.99668 3.8537 9.92077 3.66708 9.69619 3.5374C9.67405 3.52475 9.65507 3.52158 9.63293 3.51525C9.7721 3.40771 9.89546 3.30966 9.92393 3.26854ZM9.36723 3.72718C9.43998 3.75881 9.5159 3.7936 9.59813 3.84105C9.71517 3.90747 9.65507 4.034 9.52855 4.09409C9.39887 4.15419 9.16796 3.98655 9.13001 3.91696C9.17745 3.87584 9.26918 3.80626 9.36723 3.72718ZM9.6013 3.41404C9.58232 3.42985 9.52539 3.47414 9.46529 3.52158C9.43049 3.52791 9.39254 3.53107 9.35775 3.52791C9.24704 3.51209 9.19327 3.42985 9.14266 3.36027C9.08889 3.29068 9.2249 3.23058 9.29448 3.24007C9.36091 3.24956 9.51273 3.3318 9.6013 3.41404ZM8.69034 3.89482C8.36455 3.97706 8.21272 3.71769 8.18109 3.6481C8.31078 3.51526 8.53535 3.29384 8.67136 3.18314C8.5828 3.1009 8.54484 2.96488 8.38353 2.95223C8.24435 2.9554 7.91856 3.11355 7.86162 3.52474C7.80785 3.92013 8.17793 4.13521 8.47209 4.1447C8.57015 4.1447 8.6935 4.01818 8.7536 3.98655C8.88645 3.92329 8.83901 3.86003 8.69034 3.89482ZM8.15579 3.56903C8.07355 3.30649 8.10518 3.21477 8.26966 3.08508C8.30761 3.17681 8.39934 3.24007 8.45311 3.2717C8.36139 3.36343 8.21588 3.52474 8.15579 3.56903ZM7.78255 3.33496C7.83948 3.28119 7.77938 3.24007 7.72878 3.28752C7.69082 3.24323 7.59909 3.14834 7.54848 3.08824C7.49471 3.13253 7.37451 3.20528 7.30493 3.24323C7.25115 3.18314 7.18473 3.18314 7.08035 3.09773C7.02025 3.14202 6.89057 3.24007 6.82098 3.32547C6.94434 3.36027 7.03923 3.36976 7.04556 3.47414C7.04872 3.55954 7.03607 4.09409 7.04239 4.19215C7.10882 4.20796 7.19106 4.19847 7.28595 4.19531C7.29227 4.1194 7.28911 3.44883 7.28911 3.37608C7.32391 3.3571 7.36186 3.33812 7.37768 3.31915C7.41563 3.34761 7.49471 3.46148 7.55797 3.49944C7.60542 3.46465 7.72877 3.38873 7.78255 3.33496ZM6.75772 4.71721C6.61538 4.72987 6.41295 4.89434 6.35285 5.03668C6.32754 5.09362 6.36234 5.29921 6.38764 5.32136C6.40662 5.33717 6.41927 5.34982 6.43509 5.36247C6.34336 5.44788 6.25479 5.52063 6.25796 5.65031C6.26112 5.77367 6.35918 5.88438 6.4857 5.94131C6.55212 5.83693 6.65967 5.77367 6.77353 5.74837C6.78302 5.84642 6.80517 5.91917 6.87159 5.96662C6.91904 5.91601 7.10249 5.75469 7.14045 5.7199C7.1784 5.68194 7.14994 5.63766 7.10565 5.68194C7.07719 5.70725 7.01076 5.66929 6.99178 5.63766C6.99178 5.58389 6.99179 5.0177 7.01709 4.9924C6.93169 4.90067 6.85261 4.70773 6.75772 4.71721ZM6.76721 5.29289C6.60906 5.39411 6.55845 5.39094 6.4509 5.27075C6.39713 5.20749 6.40346 5.09045 6.4256 5.04617C6.47305 4.97026 6.55845 4.89118 6.59957 4.89434C6.63436 4.89751 6.76088 5.04933 6.75139 5.11892C6.76405 5.15371 6.76721 5.22014 6.76721 5.29289ZM6.77037 5.57756C6.77037 5.60919 6.77037 5.6345 6.77037 5.66296C6.73874 5.66929 6.70711 5.67878 6.66283 5.69776C6.60589 5.65031 6.33071 5.55858 6.511 5.41625C6.62171 5.47951 6.66283 5.4289 6.77037 5.36564C6.77037 5.45737 6.77037 5.54277 6.77037 5.57756ZM6.64701 4.3756C6.62803 4.3503 6.59008 4.31234 6.59008 4.26173C6.59008 4.2301 6.59324 3.88849 6.59324 3.84421C6.59324 3.80309 6.51416 3.80942 6.51416 3.84421C6.511 3.90431 6.52049 4.00869 6.46672 4.09093C6.31806 4.32183 6.03022 4.41989 5.83095 4.13521C5.76136 4.04032 5.74554 3.89798 5.73922 3.79677C5.72657 3.66076 5.82778 3.48363 5.83411 3.46781C6.09032 3.13253 6.44458 3.38241 6.47304 3.51842C6.49202 3.61015 6.511 3.72085 6.511 3.77779C6.50784 3.81575 6.59324 3.81258 6.59324 3.77146C6.59324 3.73034 6.5964 3.21477 6.5964 3.17997C6.5964 3.14518 6.52998 3.13569 6.52682 3.17997C6.52365 3.26221 6.47621 3.26854 6.41295 3.24956C6.28326 3.2116 5.99859 3.14834 5.83095 3.2464C5.68545 3.3318 5.46087 3.53423 5.46403 3.78728C5.4672 4.2048 5.62535 4.23959 5.80881 4.35346C5.97961 4.45468 6.21684 4.38826 6.43509 4.325C6.52049 4.30285 6.53314 4.35663 6.57426 4.41672C6.64069 4.51162 6.69762 4.45152 6.64701 4.3756ZM5.48934 4.96709C5.34384 5.18851 5.26476 5.53644 5.51464 5.74204C5.63167 5.8401 5.72973 5.91601 5.97012 5.87489C6.01757 5.78 6.03971 5.74837 6.12511 5.63766C5.96063 5.66297 5.83095 5.6345 5.71075 5.54277C5.46087 5.34982 5.53995 5.03668 5.6127 4.9323C5.74871 4.73303 5.93849 5.0177 5.97328 5.05566C6.01757 5.00189 6.09348 4.92598 6.16939 4.86904C6.09664 4.77099 6.03338 4.67926 5.98277 4.61916C5.82462 4.67609 5.59055 4.81843 5.48934 4.96709ZM5.59372 6.87757C5.53995 7.27612 5.91635 7.51018 6.09664 7.58926C6.14093 7.49753 6.23582 7.34887 6.32438 7.24449C6.39397 7.16541 6.31806 7.14327 6.2548 7.20337C6.17256 7.2951 5.92268 7.20653 5.85941 7.0895C5.97961 6.99777 6.28959 6.7384 6.4256 6.62769C6.33703 6.54229 6.19786 6.33353 6.17572 6.21334C6.05236 6.29874 5.65382 6.46638 5.59372 6.87757ZM5.97961 6.4474C6.0144 6.53913 6.13144 6.71626 6.18204 6.74473C6.09348 6.83329 5.87207 6.98512 5.81197 7.02624C5.6981 6.88706 5.638 6.65616 5.97961 6.4474ZM6.79884 6.30506C6.71976 6.37781 6.65966 6.44424 6.54579 6.53597C6.59957 6.59606 6.68813 6.67198 6.69762 6.77636C6.70395 6.88074 6.70078 7.37101 6.70711 7.49437C6.78935 7.49437 6.7767 7.50386 6.91903 7.49753C6.90638 7.41529 6.91587 6.77952 6.91587 6.68779C6.96964 6.63718 6.97597 6.62769 7.03923 6.58341C7.08351 6.62137 7.18789 6.64351 7.18789 6.7131C7.18789 6.78268 7.20687 7.08317 7.18473 7.19388C7.15626 7.32989 7.16892 7.42794 7.24167 7.56396C7.2986 7.50069 7.5042 7.3552 7.55165 7.3204C7.59593 7.28245 7.57379 7.25398 7.51685 7.26979C7.45675 7.28244 7.4441 7.2951 7.4441 7.25714C7.4441 7.18439 7.41563 6.85227 7.40931 6.64035C7.40298 6.42842 7.2986 6.36516 7.2385 6.33669C7.1784 6.40312 7.04239 6.48852 6.96015 6.55811C6.89689 6.51066 6.86843 6.40944 6.79884 6.30506ZM7.65286 5.79265C7.72561 5.73571 7.77622 5.64082 7.80469 5.61552C7.85846 5.57124 7.81418 5.52379 7.76673 5.56807C7.72878 5.60287 7.63388 5.52063 7.62756 5.5143C7.59593 5.47635 7.54848 4.9924 7.57062 4.98291C7.57062 4.98291 7.87744 4.94495 7.91856 4.94495C7.95019 4.94812 7.95335 4.85006 7.92172 4.8469C7.87111 4.8469 7.63705 4.87853 7.62756 4.85639C7.61491 4.80578 7.58327 4.63181 7.65919 4.48315C7.69398 4.41989 7.65919 4.35663 7.63388 4.42305C7.60542 4.48947 7.41247 4.78996 7.28911 4.84057C7.18789 4.88169 7.19738 4.907 7.26381 4.92281C7.31442 4.9323 7.37135 4.99556 7.3587 4.99556C7.34921 5.24544 7.3239 5.55226 7.39982 5.68194C7.45675 5.76102 7.5896 5.84642 7.65286 5.79265ZM8.71248 5.90019C8.67453 5.97611 8.61443 6.04569 8.50056 6.0963C8.57015 6.1564 8.65871 6.23231 8.71565 6.27027C8.78207 6.19436 8.84533 6.12477 8.92124 6.05202C8.84533 6.03937 8.75677 5.99825 8.71248 5.90019ZM8.22537 5.62817C8.32343 5.61868 8.48158 5.67878 8.65555 5.66296C8.86431 5.64715 9.02562 5.32452 8.93706 5.07464C8.85482 4.83741 8.58912 4.87853 8.40883 4.82159C8.24435 4.77731 8.17793 4.67293 8.35506 4.5559C8.56698 4.41989 8.82635 4.63814 8.85166 4.68558C8.88961 4.75517 8.92124 4.75517 8.92124 4.66344C8.92757 4.46733 8.90859 4.57804 8.88961 4.39142C8.88329 4.325 8.83584 4.31867 8.82951 4.38193C8.82635 4.44519 8.74728 4.42621 8.68718 4.42621C8.62708 4.42621 8.44995 4.39775 8.29812 4.48315C8.20007 4.54008 7.98182 4.71405 8.10518 4.91965C8.17793 5.03984 8.60178 5.14106 8.70932 5.21065C8.81686 5.28024 8.83901 5.45737 8.73779 5.53961C8.61127 5.64082 8.26649 5.55542 8.21588 5.49532C8.1463 5.41941 8.12099 5.35615 8.10518 5.26442C8.08936 5.17269 8.01345 5.18218 8.01345 5.26442C8.01345 5.34666 8.03243 5.6345 8.04824 5.70092C8.0609 5.77051 8.13048 5.74837 8.13681 5.6946C8.1463 5.64399 8.18109 5.63133 8.22537 5.62817ZM7.77938 6.51699C7.69714 6.57709 7.87427 6.66249 7.85846 6.65616C7.86479 6.90604 7.82999 7.16225 7.91223 7.28877C7.966 7.36785 8.13365 7.42478 8.16211 7.34887C8.19058 7.27296 8.3171 7.11797 8.34557 7.09266C8.39934 7.04522 8.3519 7.0041 8.30761 7.04838C8.21589 7.14643 8.16527 7.10215 8.09569 7.03573C8.06406 6.99777 8.0514 6.64984 8.07355 6.64035C8.07355 6.64035 8.24119 6.61504 8.28231 6.61504C8.31394 6.61504 8.31078 6.51699 8.27914 6.51699C8.22854 6.51699 8.07987 6.51699 8.07038 6.49485C8.05141 6.4474 8.09885 6.21017 8.10834 6.10579C8.11467 6.03304 8.07671 6.00774 8.05457 6.07732C8.03559 6.15007 7.87427 6.4474 7.77938 6.51699Z"
     fill="black"
     id="path1"
     style="fill:#ffffff;fill-opacity:1" />
</svg>
